<svg xmlns="http://www.w3.org/2000/svg" xmlns:xlink="http://www.w3.org/1999/xlink" width="500" zoomAndPan="magnify" viewBox="0 0 375 374.999991" height="500" preserveAspectRatio="xMidYMid meet" version="1.0"><defs><g/><clipPath id="d250318927"><path d="M 54.722656 142.886719 L 330.710938 142.886719 L 330.710938 232.113281 L 54.722656 232.113281 Z M 54.722656 142.886719 " clip-rule="nonzero"/></clipPath><clipPath id="a5d2191a05"><path d="M 121.566406 222.777344 L 253.433594 222.777344 L 253.433594 244.496094 L 121.566406 244.496094 Z M 121.566406 222.777344 " clip-rule="nonzero"/></clipPath><clipPath id="d544fa9c52"><path d="M 103 169 L 122 169 L 122 214 L 103 214 Z M 103 169 " clip-rule="nonzero"/></clipPath><clipPath id="9e46d6b397"><path d="M 92.226562 178.285156 L 119.378906 165.519531 L 135.972656 200.8125 L 108.824219 213.578125 Z M 92.226562 178.285156 " clip-rule="nonzero"/></clipPath><clipPath id="5c2e245b0f"><path d="M 92.226562 178.285156 L 119.378906 165.519531 L 135.972656 200.8125 L 108.824219 213.578125 Z M 92.226562 178.285156 " clip-rule="nonzero"/></clipPath></defs><rect x="-37.5" width="450" fill="#ffffff" y="-37.499999" height="449.999989" fill-opacity="1"/><rect x="-37.5" width="450" fill="#000000" y="-37.499999" height="449.999989" fill-opacity="1"/><g clip-path="url(#d250318927)"><path stroke-linecap="butt" transform="matrix(0.75, 0, 0, 0.75, 54.722043, 142.884835)" fill="none" stroke-linejoin="miter" d="M 0.000817258 0.00251111 L 367.98524 0.00251111 L 367.98524 118.971277 L 0.000817258 118.971277 Z M 0.000817258 0.00251111 " stroke="#ffffff" stroke-width="8" stroke-opacity="1" stroke-miterlimit="4"/></g><path stroke-linecap="butt" transform="matrix(0.540469, 0, 0, 0.540469, 144.275225, 160.437822)" fill="none" stroke-linejoin="miter" d="M 75.256873 78.569788 C 75.256873 79.682827 75.256873 80.911505 75.256873 82.255824 C 75.256873 83.578461 75.256873 84.713182 75.256873 85.659987 C 75.256873 86.353829 75.278556 87.394592 75.314693 88.782276 C 75.358059 90.148278 75.423106 91.629919 75.509836 93.227202 C 75.589339 94.824484 75.654387 96.17603 75.697752 97.289069 C 75.741117 98.402107 75.755572 98.958626 75.755572 98.958626 C 75.755572 99.652468 75.423106 99.999389 74.750947 99.999389 L 4.918635 99.999389 C 3.697184 99.999389 3.133438 99.399505 3.21294 98.206964 C 3.487586 91.731105 3.646592 85.248018 3.689957 78.757704 C 3.726094 72.26739 3.791142 65.755393 3.877872 59.221714 C 3.957375 52.854267 4.188656 46.450683 4.571714 39.996507 C 4.969228 33.527875 4.694582 27.109836 3.747777 20.74239 C 3.668274 20.214781 3.791142 19.766675 4.130836 19.390844 C 4.463302 19.007785 4.896953 18.819869 5.417334 18.819869 L 74.21611 18.819869 C 74.736492 18.819869 75.083413 19.072833 75.256873 19.578759 C 75.256873 19.658262 75.235191 20.048548 75.191826 20.74239 C 75.14846 21.436232 75.083413 22.130074 75.00391 22.823916 C 75.00391 23.243112 74.960545 24.233283 74.873815 25.7872 C 74.794312 27.341117 74.722037 28.960082 74.656989 30.636867 C 74.613624 32.299197 74.591941 33.556785 74.591941 34.41686 C 74.591941 35.284163 74.635306 36.339381 74.722037 37.604197 C 74.823222 38.840103 74.938862 39.953142 75.068958 40.943312 C 75.191826 41.933483 75.256873 42.424954 75.256873 42.424954 C 75.256873 43.118796 74.866587 43.465717 74.086015 43.465717 C 74.086015 43.465717 73.247622 43.444035 71.570837 43.400669 C 69.886825 43.357304 67.754706 43.335622 65.167253 43.335622 C 62.608711 43.335622 59.876708 43.335622 56.978472 43.335622 C 54.101918 43.335622 51.427735 43.378987 48.970378 43.465717 C 46.534703 43.54522 44.626638 43.675315 43.238954 43.841548 C 41.952455 44.007781 40.644273 44.398067 39.299955 45.005179 C 37.977318 45.619519 37.225656 46.696419 37.059423 48.257564 C 36.958238 49.197142 37.247338 49.999396 37.94118 50.649873 C 38.635023 51.278668 39.37223 51.762912 40.145575 52.102605 C 40.571998 52.182108 41.916317 52.276066 44.185759 52.384479 C 46.469656 52.463981 49.216114 52.507346 52.410678 52.507346 C 55.598015 52.507346 58.807035 52.485664 62.016054 52.442299 C 65.253984 52.406161 67.985987 52.384479 70.212063 52.384479 C 72.459822 52.384479 73.753549 52.384479 74.086015 52.384479 C 74.866587 52.384479 75.256873 52.716944 75.256873 53.389104 L 75.256873 64.107518 C 75.256873 65.054323 75.256873 65.871033 75.256873 66.564875 C 75.256873 67.258717 75.256873 67.995925 75.256873 68.769269 C 75.256873 69.463111 74.866587 69.810033 74.086015 69.810033 C 72.618828 69.810033 70.566212 69.78835 67.942622 69.744985 C 65.340714 69.687165 62.630393 69.607662 59.81166 69.528159 C 57.021837 69.441429 54.499432 69.376381 52.251673 69.340244 C 50.025596 69.296878 48.529499 69.275196 47.777837 69.275196 C 46.910534 69.354699 45.855316 69.398064 44.5905 69.398064 C 43.354594 69.398064 42.162053 69.578752 41.027332 69.9329 C 39.914294 70.272594 39.112039 70.951981 38.606112 71.985516 C 37.746037 73.626164 37.868905 74.97771 38.981944 76.047383 C 40.094982 77.124284 41.345343 77.832581 42.733027 78.193957 C 43.593102 78.36019 45.356617 78.446921 48.023573 78.446921 C 50.697756 78.446921 53.71886 78.381873 57.10134 78.259005 C 60.505502 78.12891 63.772342 78.006042 66.901859 77.875946 C 70.053058 77.731396 72.452595 77.615756 74.086015 77.529025 C 74.866587 77.529025 75.256873 77.875946 75.256873 78.569788 Z M 75.256873 78.569788 " stroke="#000000" stroke-width="9.681525" stroke-opacity="1" stroke-miterlimit="4"/><g fill="#ffffff" fill-opacity="1"><g transform="translate(144.275225, 214.484705)"><g><path d="M 40.671875 -11.578125 C 40.671875 -10.972656 40.671875 -10.3125 40.671875 -9.59375 C 40.671875 -8.875 40.671875 -8.257812 40.671875 -7.75 C 40.671875 -7.375 40.679688 -6.8125 40.703125 -6.0625 C 40.734375 -5.320312 40.769531 -4.519531 40.8125 -3.65625 C 40.851562 -2.800781 40.882812 -2.070312 40.90625 -1.46875 C 40.9375 -0.863281 40.953125 -0.5625 40.953125 -0.5625 C 40.953125 -0.1875 40.765625 0 40.390625 0 L 2.65625 0 C 2 0 1.695312 -0.328125 1.75 -0.984375 C 1.882812 -4.460938 1.960938 -7.957031 1.984375 -11.46875 C 2.003906 -14.988281 2.039062 -18.515625 2.09375 -22.046875 C 2.132812 -25.484375 2.257812 -28.945312 2.46875 -32.4375 C 2.6875 -35.925781 2.535156 -39.394531 2.015625 -42.84375 C 1.972656 -43.113281 2.046875 -43.351562 2.234375 -43.5625 C 2.421875 -43.769531 2.65625 -43.875 2.9375 -43.875 L 40.109375 -43.875 C 40.390625 -43.875 40.578125 -43.738281 40.671875 -43.46875 C 40.671875 -43.414062 40.660156 -43.203125 40.640625 -42.828125 C 40.617188 -42.460938 40.582031 -42.09375 40.53125 -41.71875 C 40.53125 -41.488281 40.503906 -40.953125 40.453125 -40.109375 C 40.410156 -39.273438 40.378906 -38.40625 40.359375 -37.5 C 40.335938 -36.59375 40.328125 -35.90625 40.328125 -35.4375 C 40.328125 -34.976562 40.347656 -34.410156 40.390625 -33.734375 C 40.441406 -33.054688 40.5 -32.445312 40.5625 -31.90625 C 40.632812 -31.375 40.671875 -31.109375 40.671875 -31.109375 C 40.671875 -30.742188 40.460938 -30.5625 40.046875 -30.5625 C 40.046875 -30.5625 39.59375 -30.570312 38.6875 -30.59375 C 37.78125 -30.613281 36.628906 -30.625 35.234375 -30.625 C 33.835938 -30.625 32.359375 -30.625 30.796875 -30.625 C 29.242188 -30.625 27.800781 -30.597656 26.46875 -30.546875 C 25.144531 -30.503906 24.113281 -30.4375 23.375 -30.34375 C 22.675781 -30.25 21.960938 -30.039062 21.234375 -29.71875 C 20.515625 -29.394531 20.109375 -28.8125 20.015625 -27.96875 C 19.972656 -27.457031 20.132812 -27.023438 20.5 -26.671875 C 20.875 -26.328125 21.273438 -26.066406 21.703125 -25.890625 C 21.929688 -25.835938 22.660156 -25.785156 23.890625 -25.734375 C 25.128906 -25.691406 26.609375 -25.671875 28.328125 -25.671875 C 30.046875 -25.671875 31.773438 -25.679688 33.515625 -25.703125 C 35.265625 -25.734375 36.742188 -25.75 37.953125 -25.75 C 39.160156 -25.75 39.859375 -25.75 40.046875 -25.75 C 40.460938 -25.75 40.671875 -25.5625 40.671875 -25.1875 L 40.671875 -19.390625 C 40.671875 -18.878906 40.671875 -18.4375 40.671875 -18.0625 C 40.671875 -17.695312 40.671875 -17.304688 40.671875 -16.890625 C 40.671875 -16.515625 40.460938 -16.328125 40.046875 -16.328125 C 39.253906 -16.328125 38.148438 -16.335938 36.734375 -16.359375 C 35.316406 -16.378906 33.847656 -16.410156 32.328125 -16.453125 C 30.816406 -16.503906 29.457031 -16.539062 28.25 -16.5625 C 27.039062 -16.59375 26.226562 -16.609375 25.8125 -16.609375 C 25.34375 -16.554688 24.769531 -16.53125 24.09375 -16.53125 C 23.425781 -16.53125 22.789062 -16.4375 22.1875 -16.25 C 21.582031 -16.0625 21.140625 -15.691406 20.859375 -15.140625 C 20.390625 -14.253906 20.457031 -13.519531 21.0625 -12.9375 C 21.664062 -12.351562 22.34375 -11.972656 23.09375 -11.796875 C 23.5625 -11.703125 24.515625 -11.65625 25.953125 -11.65625 C 27.390625 -11.65625 29.023438 -11.6875 30.859375 -11.75 C 32.703125 -11.820312 34.472656 -11.890625 36.171875 -11.953125 C 37.867188 -12.023438 39.160156 -12.085938 40.046875 -12.140625 C 40.460938 -12.140625 40.671875 -11.953125 40.671875 -11.578125 Z M 40.671875 -11.578125 "/></g></g></g><path stroke-linecap="butt" transform="matrix(0.540469, 0, 0, 0.540469, 182.317025, 160.437822)" fill="none" stroke-linejoin="miter" d="M 75.88783 82.826798 C 75.88783 83.773604 75.88783 85.146833 75.88783 86.953713 C 75.88783 88.760593 75.909513 90.639749 75.94565 92.59118 C 76.010698 94.528156 76.039608 96.168803 76.039608 97.513122 C 76.039608 98.835758 76.039608 99.493463 76.039608 99.493463 C 76.039608 99.833156 75.909513 99.999389 75.634867 99.999389 L 3.627072 99.999389 C 3.265696 99.999389 3.085008 99.833156 3.085008 99.493463 C 3.085008 97.773313 3.150055 96.03148 3.280151 94.267965 C 3.424701 92.497222 3.583707 90.755389 3.74994 89.035239 C 4.089633 85.587712 4.277549 81.764353 4.320914 77.565163 C 4.357051 73.337063 4.335369 69.506477 4.255866 66.058949 L 4.255866 65.936081 C 4.255866 65.748166 4.335369 65.610843 4.508829 65.524112 C 7.782897 64.244841 11.049736 63.001707 14.309348 61.801939 C 17.583415 60.587715 20.900848 59.424084 24.268873 58.303819 C 26.682865 57.443743 29.393185 56.28734 32.392607 54.841836 C 35.399256 53.367421 38.456497 51.553314 41.564331 49.392285 C 42.597867 48.720125 42.988153 47.816685 42.73519 46.681964 C 42.373814 45.482196 41.600469 44.882311 40.4007 44.882311 C 35.587171 45.048544 31.416891 45.315963 27.889861 45.670111 C 24.362831 46.009805 20.80689 46.313361 17.236494 46.580779 C 13.666099 46.833742 9.517502 47.007203 4.790703 47.086705 C 4.429327 47.086705 4.255866 46.913245 4.255866 46.551869 C 4.255866 42.938108 4.190818 39.46167 4.067951 36.122555 C 3.937855 32.761758 3.872807 29.31423 3.872807 25.7872 C 3.793305 23.452711 3.706574 21.298909 3.627072 19.325796 C 3.627072 18.986102 3.74994 18.819869 4.002903 18.819869 L 75.504772 18.819869 C 75.866148 18.819869 76.039608 18.986102 76.039608 19.325796 C 76.039608 19.325796 76.039608 20.142506 76.039608 21.783153 C 76.039608 23.4238 76.039608 25.512554 76.039608 28.056642 C 76.039608 30.571819 76.039608 33.246002 76.039608 36.057508 C 76.039608 38.854559 76.039608 41.521514 76.039608 44.065601 C 76.039608 46.580779 76.039608 48.640622 76.039608 50.237905 C 76.039608 51.835187 76.039608 52.637442 76.039608 52.637442 C 76.039608 52.803675 75.989016 52.926543 75.88783 53.013273 C 72.628218 54.906883 69.664934 56.540303 66.997979 57.927987 C 64.331024 59.293989 61.743571 60.609398 59.242849 61.866987 C 56.742126 63.11012 54.075171 64.418302 51.241982 65.805986 C 48.401567 67.171987 45.178092 68.762042 41.564331 70.568922 C 40.451293 71.176034 40.082689 72.079474 40.465748 73.279243 C 40.863262 74.471784 41.622152 75.071668 42.73519 75.071668 C 45.987574 75.071668 48.849673 75.00662 51.30703 74.883752 C 53.764387 74.760885 56.127787 74.565742 58.397229 74.312778 C 60.688353 74.067043 63.20353 73.770714 65.957216 73.431021 C 68.710902 73.076872 72.021106 72.722724 75.88783 72.361348 C 76.155249 72.361348 76.292571 72.542036 76.292571 72.896184 C 76.379302 75.042758 76.328709 76.69786 76.133566 77.875946 C 75.967333 79.03235 75.88783 80.680225 75.88783 82.826798 Z M 75.88783 82.826798 " stroke="#000000" stroke-width="9.681525" stroke-opacity="1" stroke-miterlimit="4"/><g fill="#ffffff" fill-opacity="1"><g transform="translate(182.317025, 214.484705)"><g><path d="M 41.015625 -9.28125 C 41.015625 -8.769531 41.015625 -8.023438 41.015625 -7.046875 C 41.015625 -6.066406 41.023438 -5.050781 41.046875 -4 C 41.078125 -2.957031 41.09375 -2.078125 41.09375 -1.359375 C 41.09375 -0.640625 41.09375 -0.28125 41.09375 -0.28125 C 41.09375 -0.09375 41.019531 0 40.875 0 L 1.953125 0 C 1.765625 0 1.671875 -0.09375 1.671875 -0.28125 C 1.671875 -1.207031 1.707031 -2.144531 1.78125 -3.09375 C 1.851562 -4.050781 1.929688 -5 2.015625 -5.9375 C 2.203125 -7.789062 2.304688 -9.859375 2.328125 -12.140625 C 2.359375 -14.421875 2.347656 -16.488281 2.296875 -18.34375 L 2.296875 -18.421875 C 2.296875 -18.515625 2.34375 -18.582031 2.4375 -18.625 C 4.207031 -19.320312 5.972656 -19.992188 7.734375 -20.640625 C 9.503906 -21.296875 11.296875 -21.925781 13.109375 -22.53125 C 14.410156 -23 15.875 -23.628906 17.5 -24.421875 C 19.132812 -25.210938 20.789062 -26.1875 22.46875 -27.34375 C 23.019531 -27.71875 23.226562 -28.207031 23.09375 -28.8125 C 22.90625 -29.46875 22.488281 -29.796875 21.84375 -29.796875 C 19.238281 -29.703125 16.976562 -29.5625 15.0625 -29.375 C 13.15625 -29.1875 11.238281 -29.019531 9.3125 -28.875 C 7.382812 -28.738281 5.140625 -28.648438 2.578125 -28.609375 C 2.390625 -28.609375 2.296875 -28.703125 2.296875 -28.890625 C 2.296875 -30.835938 2.257812 -32.71875 2.1875 -34.53125 C 2.125 -36.34375 2.09375 -38.203125 2.09375 -40.109375 C 2.039062 -41.367188 1.992188 -42.535156 1.953125 -43.609375 C 1.953125 -43.785156 2.019531 -43.875 2.15625 -43.875 L 40.8125 -43.875 C 41 -43.875 41.09375 -43.785156 41.09375 -43.609375 C 41.09375 -43.609375 41.09375 -43.164062 41.09375 -42.28125 C 41.09375 -41.394531 41.09375 -40.265625 41.09375 -38.890625 C 41.09375 -37.523438 41.09375 -36.082031 41.09375 -34.5625 C 41.09375 -33.050781 41.09375 -31.609375 41.09375 -30.234375 C 41.09375 -28.867188 41.09375 -27.753906 41.09375 -26.890625 C 41.09375 -26.035156 41.09375 -25.609375 41.09375 -25.609375 C 41.09375 -25.515625 41.066406 -25.441406 41.015625 -25.390625 C 39.253906 -24.367188 37.648438 -23.484375 36.203125 -22.734375 C 34.765625 -21.992188 33.367188 -21.285156 32.015625 -20.609375 C 30.671875 -19.941406 29.226562 -19.234375 27.6875 -18.484375 C 26.15625 -17.742188 24.414062 -16.882812 22.46875 -15.90625 C 21.863281 -15.582031 21.664062 -15.09375 21.875 -14.4375 C 22.082031 -13.789062 22.488281 -13.46875 23.09375 -13.46875 C 24.863281 -13.46875 26.410156 -13.5 27.734375 -13.5625 C 29.054688 -13.632812 30.332031 -13.738281 31.5625 -13.875 C 32.800781 -14.019531 34.160156 -14.1875 35.640625 -14.375 C 37.128906 -14.5625 38.921875 -14.75 41.015625 -14.9375 C 41.160156 -14.9375 41.234375 -14.84375 41.234375 -14.65625 C 41.273438 -13.488281 41.25 -12.585938 41.15625 -11.953125 C 41.0625 -11.328125 41.015625 -10.4375 41.015625 -9.28125 Z M 41.015625 -9.28125 "/></g></g></g><g clip-path="url(#a5d2191a05)"><path fill="#000000" d="M 121.566406 222.777344 L 253.402344 222.777344 L 253.402344 244.496094 L 121.566406 244.496094 Z M 121.566406 222.777344 " fill-opacity="1" fill-rule="nonzero"/></g><path stroke-linecap="butt" transform="matrix(0.540469, 0, 0, 0.540469, 121.564588, 159.625742)" fill="none" stroke-linejoin="miter" d="M 75.762244 86.952937 C 75.762244 87.560049 75.776699 88.52131 75.820064 89.822263 C 75.863429 91.101535 75.906794 92.460309 75.950159 93.88413 C 76.007979 95.293497 76.065799 96.514948 76.101937 97.541256 C 76.145302 98.574792 76.166985 99.087946 76.166985 99.087946 C 76.166985 99.695058 75.906794 99.998613 75.379185 99.998613 L 4.253147 99.998613 C 3.833951 99.998613 3.624353 99.695058 3.624353 99.087946 L 3.624353 97.03533 C 3.624353 96.955827 3.624353 96.912462 3.624353 96.912462 C 3.624353 96.746229 3.624353 96.565541 3.624353 96.377625 L 3.624353 56.098649 C 3.624353 52.759534 3.624353 49.413192 3.624353 46.045167 C 3.624353 42.684369 3.711083 39.323572 3.877316 35.962774 C 3.877316 32.963353 3.833951 30.000069 3.747221 27.080151 C 3.747221 25.771969 3.725538 24.521608 3.689401 23.329067 C 3.646035 22.129298 3.667718 20.878937 3.747221 19.577983 C 3.833951 19.072057 4.086914 18.819094 4.506111 18.819094 L 40.78104 18.819094 C 41.221919 18.819094 41.438745 19.115422 41.438745 19.700851 C 41.438745 22.454537 41.525475 25.18654 41.691708 27.89686 C 41.857941 30.607181 41.988036 33.339184 42.067539 36.09287 C 42.154269 37.89975 42.197634 39.684948 42.197634 41.448463 C 42.197634 43.211978 42.197634 44.953811 42.197634 46.681188 C 42.284365 47.895412 42.284365 49.6517 42.197634 51.942824 C 42.110904 54.212266 42.031401 56.423887 41.944671 58.592144 C 41.857941 60.73149 41.857941 62.140857 41.944671 62.813016 C 41.944671 63.947737 41.944671 65.111368 41.944671 66.311136 C 41.944671 67.510905 42.248227 68.493848 42.855339 69.27442 C 43.195032 69.802029 44.185203 70.14895 45.818623 70.315183 C 47.45927 70.481416 49.17942 70.568147 50.9863 70.568147 C 52.793181 70.568147 54.130272 70.568147 54.990347 70.568147 C 55.850422 70.568147 57.187514 70.546464 58.994394 70.503099 C 60.801274 70.459734 62.752705 70.394686 64.855914 70.315183 C 66.973578 70.228453 69.004511 70.14895 70.934259 70.06222 C 72.871235 69.97549 74.396242 69.939352 75.50928 69.939352 C 75.950159 70.018855 76.12362 70.271818 76.044117 70.691014 C 76.044117 70.857247 76.044117 71.514952 76.044117 72.649673 C 76.044117 73.762711 76.007979 74.926342 75.950159 76.140565 C 75.906794 77.340334 75.885111 78.236547 75.885111 78.821976 C 75.798381 80.20966 75.762244 81.597344 75.762244 82.985028 C 75.762244 84.35103 75.762244 85.673666 75.762244 86.952937 Z M 75.762244 86.952937 " stroke="#000000" stroke-width="9.681525" stroke-opacity="1" stroke-miterlimit="4"/><g fill="#ffffff" fill-opacity="1"><g transform="translate(121.564588, 213.672624)"><g><path d="M 40.953125 -7.046875 C 40.953125 -6.722656 40.960938 -6.210938 40.984375 -5.515625 C 41.003906 -4.816406 41.023438 -4.082031 41.046875 -3.3125 C 41.078125 -2.539062 41.101562 -1.875 41.125 -1.3125 C 41.144531 -0.757812 41.15625 -0.484375 41.15625 -0.484375 C 41.15625 -0.160156 41.019531 0 40.75 0 L 2.296875 0 C 2.066406 0 1.953125 -0.160156 1.953125 -0.484375 L 1.953125 -1.609375 C 1.953125 -1.648438 1.953125 -1.671875 1.953125 -1.671875 C 1.953125 -1.765625 1.953125 -1.859375 1.953125 -1.953125 L 1.953125 -23.71875 C 1.953125 -25.53125 1.953125 -27.34375 1.953125 -29.15625 C 1.953125 -30.976562 2 -32.796875 2.09375 -34.609375 C 2.09375 -36.234375 2.066406 -37.835938 2.015625 -39.421875 C 2.015625 -40.117188 2.003906 -40.789062 1.984375 -41.4375 C 1.960938 -42.09375 1.972656 -42.769531 2.015625 -43.46875 C 2.066406 -43.738281 2.207031 -43.875 2.4375 -43.875 L 22.046875 -43.875 C 22.273438 -43.875 22.390625 -43.710938 22.390625 -43.390625 C 22.390625 -41.898438 22.4375 -40.421875 22.53125 -38.953125 C 22.625 -37.492188 22.695312 -36.019531 22.75 -34.53125 C 22.789062 -33.550781 22.8125 -32.582031 22.8125 -31.625 C 22.8125 -30.675781 22.8125 -29.738281 22.8125 -28.8125 C 22.863281 -28.164062 22.863281 -27.222656 22.8125 -25.984375 C 22.769531 -24.753906 22.722656 -23.554688 22.671875 -22.390625 C 22.628906 -21.234375 22.628906 -20.46875 22.671875 -20.09375 C 22.671875 -19.488281 22.671875 -18.859375 22.671875 -18.203125 C 22.671875 -17.554688 22.832031 -17.023438 23.15625 -16.609375 C 23.34375 -16.328125 23.878906 -16.140625 24.765625 -16.046875 C 25.648438 -15.953125 26.578125 -15.90625 27.546875 -15.90625 C 28.523438 -15.90625 29.25 -15.90625 29.71875 -15.90625 C 30.1875 -15.90625 30.90625 -15.914062 31.875 -15.9375 C 32.851562 -15.957031 33.910156 -15.988281 35.046875 -16.03125 C 36.191406 -16.082031 37.285156 -16.128906 38.328125 -16.171875 C 39.378906 -16.222656 40.207031 -16.25 40.8125 -16.25 C 41.039062 -16.207031 41.132812 -16.070312 41.09375 -15.84375 C 41.09375 -15.75 41.09375 -15.398438 41.09375 -14.796875 C 41.09375 -14.191406 41.078125 -13.5625 41.046875 -12.90625 C 41.023438 -12.257812 41.015625 -11.769531 41.015625 -11.4375 C 40.972656 -10.695312 40.953125 -9.953125 40.953125 -9.203125 C 40.953125 -8.460938 40.953125 -7.742188 40.953125 -7.046875 Z M 40.953125 -7.046875 "/></g></g></g><path stroke-linecap="butt" transform="matrix(0.540469, 0, 0, 0.540469, 60.163565, 160.437822)" fill="none" stroke-linejoin="miter" d="M 75.759799 19.95459 C 75.759799 20.063003 75.759799 20.113596 75.759799 20.113596 C 75.759799 20.279829 75.759799 20.446062 75.759799 20.619522 C 75.759799 22.946784 75.716434 25.259591 75.629703 27.550715 C 75.550201 29.820157 75.506835 32.067916 75.506835 34.293993 C 75.506835 35.074565 75.528518 36.014143 75.571883 37.127181 C 75.615248 38.240219 75.651386 39.23039 75.694751 40.090465 C 75.738116 40.95054 75.759799 41.384191 75.759799 41.384191 L 75.759799 45.670111 C 75.759799 46.176038 75.550201 46.429001 75.131004 46.429001 C 70.657169 46.429001 66.631439 46.25554 63.061044 45.923074 C 59.490648 45.568926 56.62855 45.344873 54.489203 45.258142 C 52.407677 45.17864 50.138235 45.200322 47.680878 45.32319 C 45.245204 45.453286 43.597329 45.99535 42.730026 46.963837 C 41.956681 47.635997 41.566395 48.604485 41.566395 49.862074 C 41.566395 51.09798 41.60976 51.986965 41.689263 52.507346 C 41.942226 54.48046 42.650523 55.513995 43.806927 55.600726 C 44.977785 55.680228 46.517247 55.846461 48.40363 56.099424 C 49.437166 56.186155 51.128406 56.25843 53.47735 56.323478 C 55.855205 56.366843 58.478795 56.366843 61.355349 56.323478 C 64.253585 56.25843 66.942223 56.207837 69.421262 56.164472 C 71.921985 56.121107 73.786685 56.056059 75.000909 55.976557 C 75.506835 55.889826 75.759799 56.11388 75.759799 56.634261 C 75.759799 56.634261 75.759799 57.436516 75.759799 59.033798 C 75.759799 60.609398 75.738116 62.459643 75.694751 64.577307 C 75.651386 66.680516 75.651386 68.566899 75.694751 70.250911 C 75.738116 71.934924 75.759799 72.852819 75.759799 73.02628 C 75.759799 73.02628 75.759799 73.452703 75.759799 74.312778 C 75.759799 75.180081 75.759799 75.606505 75.759799 75.606505 C 75.759799 76.025701 75.550201 76.235299 75.131004 76.235299 C 74.350432 76.322029 72.774832 76.365394 70.404205 76.365394 C 68.048033 76.365394 65.381078 76.394304 62.396112 76.459352 C 59.432828 76.502717 56.621322 76.625585 53.954367 76.835183 C 51.280184 77.044781 49.227568 77.362792 47.774836 77.781989 C 46.220919 78.222867 45.035605 78.504741 44.211668 78.634836 C 43.394958 78.757704 42.722799 79.14799 42.19519 79.798467 C 41.689263 80.448944 41.132744 81.720988 40.525632 83.614598 C 39.83179 85.927405 39.752287 88.435355 40.272669 91.145676 C 40.800278 93.855996 41.147199 96.544634 41.313432 99.211589 C 41.313432 99.739198 41.053241 99.999389 40.525632 99.999389 L 4.380798 99.999389 C 3.874871 99.999389 3.621908 99.739198 3.621908 99.211589 C 3.621908 99.211589 3.643591 98.467155 3.686956 96.978285 C 3.730321 95.460506 3.752003 93.631943 3.752003 91.492597 C 3.752003 89.32434 3.752003 87.257269 3.752003 85.284156 C 3.752003 83.311042 3.708638 81.887221 3.621908 81.027146 C 3.621908 81.027146 3.621908 80.405579 3.621908 79.169673 C 3.621908 77.912084 3.621908 76.459352 3.621908 74.818705 C 3.621908 73.185285 3.621908 71.761463 3.621908 70.568922 C 3.621908 69.369154 3.621908 68.769269 3.621908 68.769269 C 3.621908 68.24166 3.643591 66.687743 3.686956 64.107518 C 3.730321 61.520066 3.752003 58.441141 3.752003 54.870746 C 3.752003 51.30035 3.752003 47.68659 3.752003 44.029464 C 3.752003 40.379566 3.752003 37.192229 3.752003 34.481908 C 3.752003 31.771588 3.708638 29.98639 3.621908 29.126315 L 3.621908 19.578759 C 3.621908 19.072833 3.874871 18.819869 4.380798 18.819869 L 75.131004 18.819869 C 75.550201 18.819869 75.759799 19.072833 75.759799 19.578759 Z M 75.759799 19.95459 " stroke="#000000" stroke-width="9.681525" stroke-opacity="1" stroke-miterlimit="4"/><g fill="#ffffff" fill-opacity="1"><g transform="translate(60.163565, 214.484705)"><g><path d="M 40.953125 -43.25 C 40.953125 -43.207031 40.953125 -43.1875 40.953125 -43.1875 C 40.953125 -43.09375 40.953125 -43 40.953125 -42.90625 C 40.953125 -41.644531 40.925781 -40.398438 40.875 -39.171875 C 40.832031 -37.941406 40.8125 -36.722656 40.8125 -35.515625 C 40.8125 -35.085938 40.820312 -34.570312 40.84375 -33.96875 C 40.863281 -33.363281 40.882812 -32.828125 40.90625 -32.359375 C 40.9375 -31.898438 40.953125 -31.671875 40.953125 -31.671875 L 40.953125 -29.375 C 40.953125 -29.09375 40.835938 -28.953125 40.609375 -28.953125 C 38.179688 -28.953125 36.003906 -29.046875 34.078125 -29.234375 C 32.148438 -29.421875 30.601562 -29.535156 29.4375 -29.578125 C 28.320312 -29.628906 27.101562 -29.617188 25.78125 -29.546875 C 24.457031 -29.472656 23.5625 -29.179688 23.09375 -28.671875 C 22.675781 -28.296875 22.46875 -27.769531 22.46875 -27.09375 C 22.46875 -26.425781 22.488281 -25.953125 22.53125 -25.671875 C 22.675781 -24.597656 23.0625 -24.035156 23.6875 -23.984375 C 24.3125 -23.941406 25.132812 -23.851562 26.15625 -23.71875 C 26.71875 -23.675781 27.640625 -23.640625 28.921875 -23.609375 C 30.203125 -23.585938 31.617188 -23.585938 33.171875 -23.609375 C 34.734375 -23.640625 36.1875 -23.664062 37.53125 -23.6875 C 38.882812 -23.707031 39.882812 -23.742188 40.53125 -23.796875 C 40.8125 -23.835938 40.953125 -23.71875 40.953125 -23.4375 C 40.953125 -23.4375 40.953125 -23.003906 40.953125 -22.140625 C 40.953125 -21.285156 40.9375 -20.285156 40.90625 -19.140625 C 40.882812 -18.003906 40.882812 -16.984375 40.90625 -16.078125 C 40.9375 -15.171875 40.953125 -14.671875 40.953125 -14.578125 C 40.953125 -14.578125 40.953125 -14.34375 40.953125 -13.875 C 40.953125 -13.414062 40.953125 -13.1875 40.953125 -13.1875 C 40.953125 -12.957031 40.835938 -12.84375 40.609375 -12.84375 C 40.179688 -12.789062 39.328125 -12.765625 38.046875 -12.765625 C 36.773438 -12.765625 35.335938 -12.753906 33.734375 -12.734375 C 32.128906 -12.710938 30.601562 -12.640625 29.15625 -12.515625 C 27.71875 -12.398438 26.601562 -12.226562 25.8125 -12 C 24.976562 -11.769531 24.335938 -11.617188 23.890625 -11.546875 C 23.453125 -11.472656 23.09375 -11.257812 22.8125 -10.90625 C 22.53125 -10.5625 22.226562 -9.878906 21.90625 -8.859375 C 21.53125 -7.597656 21.484375 -6.234375 21.765625 -4.765625 C 22.046875 -3.304688 22.234375 -1.859375 22.328125 -0.421875 C 22.328125 -0.140625 22.1875 0 21.90625 0 L 2.375 0 C 2.09375 0 1.953125 -0.140625 1.953125 -0.421875 C 1.953125 -0.421875 1.960938 -0.828125 1.984375 -1.640625 C 2.003906 -2.453125 2.015625 -3.4375 2.015625 -4.59375 C 2.015625 -5.757812 2.015625 -6.878906 2.015625 -7.953125 C 2.015625 -9.023438 1.992188 -9.789062 1.953125 -10.25 C 1.953125 -10.25 1.953125 -10.585938 1.953125 -11.265625 C 1.953125 -11.941406 1.953125 -12.722656 1.953125 -13.609375 C 1.953125 -14.492188 1.953125 -15.257812 1.953125 -15.90625 C 1.953125 -16.5625 1.953125 -16.890625 1.953125 -16.890625 C 1.953125 -17.160156 1.960938 -17.992188 1.984375 -19.390625 C 2.003906 -20.785156 2.015625 -22.445312 2.015625 -24.375 C 2.015625 -26.3125 2.015625 -28.265625 2.015625 -30.234375 C 2.015625 -32.210938 2.015625 -33.9375 2.015625 -35.40625 C 2.015625 -36.875 1.992188 -37.835938 1.953125 -38.296875 L 1.953125 -43.46875 C 1.953125 -43.738281 2.09375 -43.875 2.375 -43.875 L 40.609375 -43.875 C 40.835938 -43.875 40.953125 -43.738281 40.953125 -43.46875 Z M 40.953125 -43.25 "/></g></g></g><path stroke-linecap="butt" transform="matrix(0.570534, 0, 0, 0.570534, 279.652633, 158.588807)" fill="none" stroke-linejoin="miter" d="M 75.257906 78.574009 C 75.257906 79.683167 75.257906 80.915565 75.257906 82.257509 C 75.257906 83.578913 75.257906 84.715457 75.257906 85.660295 C 75.257906 86.351807 75.278446 87.392499 75.319526 88.782369 C 75.360606 90.144853 75.422226 91.630577 75.504386 93.225847 C 75.593392 94.821117 75.655012 96.176755 75.696092 97.292759 C 75.737172 98.401917 75.757712 98.963342 75.757712 98.963342 C 75.757712 99.654854 75.422226 99.997187 74.751254 99.997187 L 4.915391 99.997187 C 3.696687 99.997187 3.128414 99.401528 3.217421 98.203364 C 3.48444 91.733277 3.641913 85.249496 3.68984 78.758869 C 3.73092 72.268242 3.79254 65.757074 3.8747 59.218521 C 3.956859 52.85798 4.189646 46.449512 4.566212 39.999965 C 4.970164 33.529878 4.696298 27.107717 3.75146 20.740329 C 3.6693 20.219984 3.79254 19.768105 4.128026 19.384692 C 4.463512 19.008126 4.894851 18.823267 5.422043 18.823267 L 74.217215 18.823267 C 74.73756 18.823267 75.08674 19.069746 75.257906 19.576398 C 75.257906 19.658558 75.230519 20.048817 75.18944 20.740329 C 75.14836 21.438688 75.08674 22.1302 75.00458 22.821712 C 75.00458 23.246205 74.9635 24.232123 74.874493 25.786313 C 74.792334 27.340503 74.71702 28.956313 74.655401 30.64059 C 74.614321 32.29748 74.593781 33.557264 74.593781 34.419943 C 74.593781 35.282621 74.634861 36.343852 74.71702 37.603636 C 74.826567 38.842881 74.936113 39.958885 75.0662 40.944803 C 75.18944 41.930721 75.257906 42.42368 75.257906 42.42368 C 75.257906 43.115192 74.867647 43.464371 74.087128 43.464371 C 74.087128 43.464371 73.24499 43.443832 71.56756 43.402752 C 69.89013 43.361672 67.753974 43.341132 65.172786 43.341132 C 62.605291 43.341132 59.873476 43.341132 56.977342 43.341132 C 54.101748 43.341132 51.431553 43.382212 48.973604 43.464371 C 46.536196 43.546531 44.62598 43.676618 43.236109 43.840937 C 41.955785 44.012104 40.641227 44.402363 39.299283 45.011715 C 37.971033 45.621067 37.224747 46.702838 37.060428 48.257029 C 36.957728 49.201867 37.252134 49.996079 37.943646 50.646511 C 38.635158 51.283249 39.36775 51.762515 40.148268 52.098001 C 40.565914 52.180161 41.914705 52.276014 44.180947 52.385561 C 46.474576 52.46772 49.213237 52.5088 52.410624 52.5088 C 55.601165 52.5088 58.805398 52.48826 62.016479 52.447181 C 65.254946 52.406101 67.98676 52.385561 70.211923 52.385561 C 72.457625 52.385561 73.751642 52.385561 74.087128 52.385561 C 74.867647 52.385561 75.257906 52.721047 75.257906 53.392019 L 75.257906 64.107031 C 75.257906 65.051869 75.257906 65.873467 75.257906 66.564979 C 75.257906 67.256491 75.257906 67.99593 75.257906 68.769602 C 75.257906 69.461114 74.867647 69.810293 74.087128 69.810293 C 72.615098 69.810293 70.567949 69.789753 67.94568 69.748673 C 65.337106 69.687053 62.625831 69.61174 59.811856 69.52958 C 57.018422 69.440574 54.498853 69.378954 52.246305 69.337874 C 50.021142 69.296794 48.528572 69.276254 47.77544 69.276254 C 46.912762 69.358414 45.85153 69.399494 44.591746 69.399494 C 43.352502 69.399494 42.168031 69.577507 41.031487 69.933533 C 39.915482 70.269019 39.107577 70.953684 38.600925 71.987529 C 37.745093 73.623879 37.868333 74.979516 38.984337 76.047594 C 40.093495 77.122519 41.346433 77.834571 42.729457 78.190597 C 43.592135 78.361763 45.358571 78.443923 48.028766 78.443923 C 50.692114 78.443923 53.718335 78.382303 57.100582 78.252216 C 60.503368 78.128977 63.776069 78.005737 66.904989 77.875651 C 70.05445 77.731871 72.450778 77.615478 74.087128 77.533318 C 74.867647 77.533318 75.257906 77.875651 75.257906 78.574009 Z M 75.257906 78.574009 " stroke="#000000" stroke-width="9.681525" stroke-opacity="1" stroke-miterlimit="4"/><g fill="#ffffff" fill-opacity="1"><g transform="translate(279.652633, 215.64223)"><g><path d="M 42.9375 -12.21875 C 42.9375 -11.582031 42.9375 -10.882812 42.9375 -10.125 C 42.9375 -9.363281 42.9375 -8.710938 42.9375 -8.171875 C 42.9375 -7.773438 42.945312 -7.1875 42.96875 -6.40625 C 42.988281 -5.625 43.023438 -4.773438 43.078125 -3.859375 C 43.128906 -2.953125 43.164062 -2.179688 43.1875 -1.546875 C 43.21875 -0.910156 43.234375 -0.59375 43.234375 -0.59375 C 43.234375 -0.195312 43.035156 0 42.640625 0 L 2.796875 0 C 2.109375 0 1.789062 -0.34375 1.84375 -1.03125 C 1.988281 -4.707031 2.070312 -8.398438 2.09375 -12.109375 C 2.125 -15.816406 2.160156 -19.535156 2.203125 -23.265625 C 2.253906 -26.898438 2.390625 -30.554688 2.609375 -34.234375 C 2.835938 -37.921875 2.679688 -41.582031 2.140625 -45.21875 C 2.085938 -45.507812 2.160156 -45.765625 2.359375 -45.984375 C 2.554688 -46.203125 2.800781 -46.3125 3.09375 -46.3125 L 42.34375 -46.3125 C 42.632812 -46.3125 42.832031 -46.164062 42.9375 -45.875 C 42.9375 -45.820312 42.921875 -45.597656 42.890625 -45.203125 C 42.867188 -44.816406 42.832031 -44.425781 42.78125 -44.03125 C 42.78125 -43.789062 42.753906 -43.226562 42.703125 -42.34375 C 42.660156 -41.457031 42.625 -40.535156 42.59375 -39.578125 C 42.570312 -38.617188 42.5625 -37.894531 42.5625 -37.40625 C 42.5625 -36.914062 42.585938 -36.3125 42.640625 -35.59375 C 42.691406 -34.882812 42.753906 -34.25 42.828125 -33.6875 C 42.898438 -33.125 42.9375 -32.84375 42.9375 -32.84375 C 42.9375 -32.445312 42.710938 -32.25 42.265625 -32.25 C 42.265625 -32.25 41.785156 -32.257812 40.828125 -32.28125 C 39.867188 -32.3125 38.65625 -32.328125 37.1875 -32.328125 C 35.71875 -32.328125 34.160156 -32.328125 32.515625 -32.328125 C 30.867188 -32.328125 29.34375 -32.300781 27.9375 -32.25 C 26.539062 -32.207031 25.453125 -32.132812 24.671875 -32.03125 C 23.929688 -31.9375 23.179688 -31.71875 22.421875 -31.375 C 21.660156 -31.03125 21.234375 -30.414062 21.140625 -29.53125 C 21.085938 -28.988281 21.253906 -28.53125 21.640625 -28.15625 C 22.035156 -27.789062 22.457031 -27.515625 22.90625 -27.328125 C 23.144531 -27.273438 23.914062 -27.222656 25.21875 -27.171875 C 26.519531 -27.117188 28.078125 -27.09375 29.890625 -27.09375 C 31.710938 -27.09375 33.539062 -27.101562 35.375 -27.125 C 37.21875 -27.15625 38.773438 -27.171875 40.046875 -27.171875 C 41.328125 -27.171875 42.066406 -27.171875 42.265625 -27.171875 C 42.710938 -27.171875 42.9375 -26.972656 42.9375 -26.578125 L 42.9375 -20.46875 C 42.9375 -19.925781 42.9375 -19.457031 42.9375 -19.0625 C 42.9375 -18.675781 42.9375 -18.265625 42.9375 -17.828125 C 42.9375 -17.429688 42.710938 -17.234375 42.265625 -17.234375 C 41.429688 -17.234375 40.265625 -17.242188 38.765625 -17.265625 C 37.273438 -17.296875 35.726562 -17.332031 34.125 -17.375 C 32.53125 -17.425781 31.09375 -17.460938 29.8125 -17.484375 C 28.539062 -17.515625 27.6875 -17.53125 27.25 -17.53125 C 26.757812 -17.476562 26.15625 -17.453125 25.4375 -17.453125 C 24.726562 -17.453125 24.050781 -17.351562 23.40625 -17.15625 C 22.769531 -16.957031 22.304688 -16.566406 22.015625 -15.984375 C 21.523438 -15.046875 21.597656 -14.269531 22.234375 -13.65625 C 22.878906 -13.039062 23.59375 -12.632812 24.375 -12.4375 C 24.863281 -12.34375 25.867188 -12.296875 27.390625 -12.296875 C 28.910156 -12.296875 30.640625 -12.332031 32.578125 -12.40625 C 34.523438 -12.476562 36.394531 -12.550781 38.1875 -12.625 C 39.976562 -12.695312 41.335938 -12.757812 42.265625 -12.8125 C 42.710938 -12.8125 42.9375 -12.613281 42.9375 -12.21875 Z M 42.9375 -12.21875 "/></g></g></g><path stroke-linecap="butt" transform="matrix(0.575808, 0, 0, 0.575808, 249.532078, 157.858422)" fill="none" stroke-linejoin="miter" d="M 76.297579 63.099116 C 76.297579 65.154651 76.270443 67.66471 76.229739 70.629293 C 76.189035 73.593877 76.168684 76.687355 76.168684 79.923296 C 76.168684 83.159238 76.148332 86.198444 76.107628 89.034133 C 76.060141 91.869821 76.039789 94.250986 76.039789 96.18441 C 76.039789 98.117834 76.087276 99.26432 76.168684 99.623869 C 76.168684 99.874875 76.073708 99.996986 75.883758 99.996986 L 42.608514 99.996986 C 42.418563 99.996986 42.323588 99.915579 42.323588 99.74598 C 41.984391 98.721605 41.658761 97.690445 41.3467 96.659286 C 41.05499 95.607774 40.736145 94.569831 40.403732 93.538672 C 39.623578 91.394945 38.992672 88.884886 38.511012 86.008494 C 38.049703 83.11175 37.344173 80.798425 36.401205 79.075303 C 35.9806 78.132335 35.356478 77.901681 34.53562 78.383341 C 33.721547 78.844649 33.307727 79.645155 33.307727 80.778073 C 33.144912 83.52557 33.117776 86.666536 33.246671 90.200971 C 33.375566 93.728622 33.477325 96.869588 33.558733 99.623869 C 33.558733 99.874875 33.477325 99.996986 33.307727 99.996986 L 3.621189 99.874875 C 3.438022 99.874875 3.343047 99.786684 3.343047 99.623869 C 3.343047 92.480376 3.424454 85.377587 3.594053 78.315502 C 3.784003 71.2602 3.878978 64.157411 3.878978 57.013918 C 3.878978 54.598834 3.851843 51.763146 3.811139 48.506853 C 3.770435 45.230208 3.750083 41.885723 3.750083 38.486968 C 3.750083 35.081428 3.729732 31.899758 3.689028 28.935175 C 3.648324 25.977375 3.600837 23.589427 3.560133 21.784898 C 3.519429 19.973585 3.499078 19.07132 3.499078 19.07132 C 3.499078 18.901722 3.580485 18.820314 3.750083 18.820314 L 36.143415 18.820314 C 36.231606 18.820314 36.313014 18.901722 36.401205 19.07132 C 37.004976 21.045448 37.561259 23.433396 38.070055 26.228381 C 38.592419 29.023366 39.148702 31.811567 39.738905 34.606552 C 40.34946 37.401537 41.041423 39.755565 41.821576 41.668637 C 42.153989 42.781204 42.845952 43.120401 43.897463 42.679445 C 44.677616 42.421655 45.105005 41.655069 45.193196 40.372904 C 45.356011 38.568375 45.464554 36.377161 45.505258 33.792478 C 45.545961 31.207796 45.566313 28.58241 45.566313 25.909536 C 45.566313 23.243446 45.566313 21.004744 45.566313 19.200215 C 45.566313 18.949209 45.654504 18.820314 45.824103 18.820314 L 76.168684 18.820314 C 76.338282 18.820314 76.41969 18.949209 76.41969 19.200215 C 76.41969 19.281623 76.41969 19.369814 76.41969 19.451221 C 76.41969 26.764313 76.399338 34.050268 76.358634 41.322656 C 76.31793 48.58826 76.297579 55.84708 76.297579 63.099116 Z M 76.297579 63.099116 " stroke="#000000" stroke-width="9.681525" stroke-opacity="1" stroke-miterlimit="4"/><g fill="#ffffff" fill-opacity="1"><g transform="translate(249.532078, 215.439235)"><g><path d="M 43.921875 -21.265625 C 43.921875 -20.066406 43.910156 -18.613281 43.890625 -16.90625 C 43.867188 -15.195312 43.859375 -13.410156 43.859375 -11.546875 C 43.859375 -9.691406 43.84375 -7.945312 43.8125 -6.3125 C 43.789062 -4.675781 43.78125 -3.300781 43.78125 -2.1875 C 43.78125 -1.070312 43.804688 -0.414062 43.859375 -0.21875 C 43.859375 -0.0703125 43.804688 0 43.703125 0 L 24.53125 0 C 24.425781 0 24.375 -0.0507812 24.375 -0.15625 C 24.175781 -0.75 23.988281 -1.34375 23.8125 -1.9375 C 23.644531 -2.53125 23.460938 -3.125 23.265625 -3.71875 C 22.816406 -4.957031 22.457031 -6.40625 22.1875 -8.0625 C 21.914062 -9.71875 21.503906 -11.046875 20.953125 -12.046875 C 20.710938 -12.585938 20.351562 -12.722656 19.875 -12.453125 C 19.40625 -12.179688 19.171875 -11.722656 19.171875 -11.078125 C 19.078125 -9.492188 19.066406 -7.679688 19.140625 -5.640625 C 19.210938 -3.609375 19.273438 -1.800781 19.328125 -0.21875 C 19.328125 -0.0703125 19.273438 0 19.171875 0 L 2.078125 -0.078125 C 1.984375 -0.078125 1.9375 -0.125 1.9375 -0.21875 C 1.9375 -4.332031 1.984375 -8.421875 2.078125 -12.484375 C 2.179688 -16.546875 2.234375 -20.632812 2.234375 -24.75 C 2.234375 -26.132812 2.21875 -27.769531 2.1875 -29.65625 C 2.164062 -31.539062 2.15625 -33.460938 2.15625 -35.421875 C 2.15625 -37.378906 2.140625 -39.210938 2.109375 -40.921875 C 2.085938 -42.628906 2.0625 -44.003906 2.03125 -45.046875 C 2.007812 -46.085938 2 -46.609375 2 -46.609375 C 2 -46.703125 2.050781 -46.75 2.15625 -46.75 L 20.8125 -46.75 C 20.863281 -46.75 20.910156 -46.703125 20.953125 -46.609375 C 21.304688 -45.460938 21.628906 -44.082031 21.921875 -42.46875 C 22.222656 -40.863281 22.546875 -39.253906 22.890625 -37.640625 C 23.234375 -36.035156 23.628906 -34.6875 24.078125 -33.59375 C 24.273438 -32.945312 24.671875 -32.75 25.265625 -33 C 25.710938 -33.144531 25.960938 -33.59375 26.015625 -34.34375 C 26.109375 -35.382812 26.164062 -36.644531 26.1875 -38.125 C 26.21875 -39.613281 26.234375 -41.125 26.234375 -42.65625 C 26.234375 -44.195312 26.234375 -45.488281 26.234375 -46.53125 C 26.234375 -46.675781 26.285156 -46.75 26.390625 -46.75 L 43.859375 -46.75 C 43.953125 -46.75 44 -46.675781 44 -46.53125 C 44 -46.476562 44 -46.425781 44 -46.375 C 44 -42.164062 43.984375 -37.96875 43.953125 -33.78125 C 43.929688 -29.59375 43.921875 -25.421875 43.921875 -21.265625 Z M 43.921875 -21.265625 "/></g></g></g><path stroke-linecap="butt" transform="matrix(0.75, 0, 0, 0.75, 97.657572, 228.100502)" fill="none" stroke-linejoin="miter" d="M 46.331573 4.121206 L 46.331573 5.589956 L 42.456573 5.589956 L 42.456573 7.938915 L 45.972198 7.938915 L 45.972198 9.39204 L 42.456573 9.39204 L 42.456573 13.001415 L 40.701364 13.001415 L 40.701364 4.121206 Z M 55.795115 13.001415 L 54.039907 13.001415 L 54.039907 4.121206 L 55.795115 4.121206 Z M 66.024283 4.121206 L 66.024283 11.527457 L 70.013866 11.527457 L 70.013866 13.001415 L 64.269074 13.001415 L 64.269074 4.121206 Z M 79.373242 9.100373 L 79.373242 11.527457 L 83.618034 11.527457 L 83.618034 13.001415 L 77.618033 13.001415 L 77.618033 4.121206 L 83.519076 4.121206 L 83.519076 5.589956 L 79.373242 5.589956 L 79.373242 7.668081 L 82.998242 7.668081 L 82.998242 9.100373 Z M 102.118035 13.001415 L 100.50866 13.001415 L 100.50866 4.121206 L 102.805535 4.121206 L 105.050327 10.647248 L 105.180535 10.647248 L 107.41491 4.121206 L 109.654494 4.121206 L 109.654494 13.001415 L 107.993035 13.001415 L 107.993035 7.131623 L 107.841994 7.105581 L 105.784702 13.001415 L 104.32116 13.001415 L 102.269077 7.105581 L 102.118035 7.131623 Z M 125.498245 13.001415 L 123.649286 13.001415 L 122.98262 10.95454 L 119.581578 10.95454 L 118.914911 13.001415 L 117.107619 13.001415 L 120.175328 4.121206 L 122.430536 4.121206 Z M 121.196161 5.970165 L 120.055536 9.475373 L 122.498245 9.475373 L 121.347203 5.970165 Z M 134.644079 13.001415 L 132.940954 13.001415 L 132.940954 4.121206 L 134.951371 4.121206 L 138.519079 9.839957 L 138.675329 9.819123 L 138.675329 4.121206 L 140.368038 4.121206 L 140.368038 13.001415 L 138.565954 13.001415 L 134.795121 6.886831 L 134.644079 6.912873 Z M 156.20658 13.001415 L 154.36283 13.001415 L 153.690955 10.95454 L 150.289913 10.95454 L 149.623247 13.001415 L 147.815955 13.001415 L 150.883663 4.121206 L 153.138872 4.121206 Z M 151.904497 5.970165 L 150.763872 9.475373 L 153.20658 9.475373 L 152.060747 5.970165 Z M 166.810748 13.126415 C 166.071164 13.126415 165.430539 12.959748 164.888873 12.621207 C 164.347206 12.282665 163.930539 11.772248 163.638872 11.089957 C 163.347206 10.407665 163.196164 9.563915 163.196164 8.558706 C 163.196164 7.54829 163.373247 6.699331 163.727414 6.01704 C 164.076372 5.334748 164.565956 4.82954 165.190956 4.490998 C 165.821164 4.157665 166.545123 3.990998 167.373248 3.990998 C 168.222206 3.990998 168.946164 4.152456 169.545123 4.464956 C 170.144081 4.782665 170.565956 5.251415 170.810748 5.876415 L 169.529498 6.652456 L 169.373248 6.647248 C 169.190956 6.251415 168.935748 5.959748 168.607623 5.777456 C 168.279498 5.595165 167.862831 5.506623 167.373248 5.506623 C 166.607623 5.506623 166.019081 5.746206 165.618039 6.230581 C 165.211789 6.714956 165.008664 7.490998 165.008664 8.558706 C 165.008664 9.631623 165.196164 10.412873 165.576373 10.897248 C 165.956581 11.386832 166.513873 11.626415 167.253456 11.626415 C 167.894081 11.626415 168.368039 11.48579 168.670123 11.194123 C 168.972206 10.907665 169.128456 10.480582 169.128456 9.907665 L 169.128456 9.527457 L 167.024289 9.527457 L 167.024289 8.100373 L 170.86804 8.100373 L 170.86804 13.001415 L 169.190956 13.001415 L 169.190956 11.808707 L 169.065956 11.793082 C 168.883664 12.214957 168.607623 12.543082 168.237831 12.777457 C 167.868039 13.011832 167.388873 13.126415 166.810748 13.126415 Z M 180.831582 9.100373 L 180.831582 11.527457 L 185.071166 11.527457 L 185.071166 13.001415 L 179.076373 13.001415 L 179.076373 4.121206 L 184.972207 4.121206 L 184.972207 5.589956 L 180.831582 5.589956 L 180.831582 7.668081 L 184.451374 7.668081 L 184.451374 9.100373 Z M 192.868041 13.001415 L 192.868041 4.121206 L 196.43575 4.121206 C 197.352416 4.121206 198.050333 4.32954 198.513875 4.756623 C 198.982625 5.178498 199.217 5.761831 199.217 6.506623 C 199.217 7.043081 199.081583 7.48579 198.805541 7.82954 C 198.534708 8.17329 198.128458 8.438915 197.581583 8.621206 L 197.581583 8.746206 C 197.862833 8.871206 198.086791 9.04829 198.258666 9.287873 C 198.430541 9.527457 198.597208 9.881623 198.74825 10.350373 L 199.638875 13.001415 L 197.831583 13.001415 L 196.961791 10.345165 C 196.87325 10.07954 196.774291 9.871207 196.664916 9.725373 C 196.550333 9.574332 196.409708 9.470165 196.237833 9.402457 C 196.065958 9.334748 195.842 9.29829 195.565958 9.29829 L 194.623249 9.29829 L 194.623249 13.001415 Z M 196.222208 7.907665 C 197.071166 7.907665 197.49825 7.511831 197.49825 6.720165 C 197.49825 5.912873 197.071166 5.511831 196.222208 5.511831 L 194.623249 5.511831 L 194.623249 7.907665 Z M 196.222208 7.907665 " stroke="#222222" stroke-width="0.435596" stroke-opacity="1" stroke-miterlimit="4"/><g fill="#ffffff" fill-opacity="1"><g transform="translate(127.317727, 237.850501)"><g><path d="M 5.09375 -6.65625 L 5.09375 -5.5625 L 2.1875 -5.5625 L 2.1875 -3.796875 L 4.8125 -3.796875 L 4.8125 -2.703125 L 2.1875 -2.703125 L 2.1875 0 L 0.859375 0 L 0.859375 -6.65625 Z M 5.09375 -6.65625 "/></g></g></g><g fill="#ffffff" fill-opacity="1"><g transform="translate(137.321868, 237.850501)"><g><path d="M 2.1875 0 L 0.859375 0 L 0.859375 -6.65625 L 2.1875 -6.65625 Z M 2.1875 0 "/></g></g></g><g fill="#ffffff" fill-opacity="1"><g transform="translate(144.993978, 237.850501)"><g><path d="M 2.1875 -6.65625 L 2.1875 -1.109375 L 5.171875 -1.109375 L 5.171875 0 L 0.859375 0 L 0.859375 -6.65625 Z M 2.1875 -6.65625 "/></g></g></g><g fill="#ffffff" fill-opacity="1"><g transform="translate(155.007229, 237.850501)"><g><path d="M 2.1875 -2.921875 L 2.1875 -1.109375 L 5.359375 -1.109375 L 5.359375 0 L 0.859375 0 L 0.859375 -6.65625 L 5.28125 -6.65625 L 5.28125 -5.5625 L 2.1875 -5.5625 L 2.1875 -4 L 4.890625 -4 L 4.890625 -2.921875 Z M 2.1875 -2.921875 "/></g></g></g><g fill="#ffffff" fill-opacity="1"><g transform="translate(165.352976, 237.850501)"><g/></g></g><g fill="#ffffff" fill-opacity="1"><g transform="translate(172.173348, 237.850501)"><g><path d="M 2.078125 0 L 0.859375 0 L 0.859375 -6.65625 L 2.59375 -6.65625 L 4.265625 -1.765625 L 4.375 -1.765625 L 6.046875 -6.65625 L 7.71875 -6.65625 L 7.71875 0 L 6.484375 0 L 6.484375 -4.40625 L 6.359375 -4.421875 L 4.828125 0 L 3.71875 0 L 2.1875 -4.421875 L 2.078125 -4.40625 Z M 2.078125 0 "/></g></g></g><g fill="#ffffff" fill-opacity="1"><g transform="translate(185.388586, 237.850501)"><g><path d="M 6.390625 0 L 5 0 L 4.5 -1.53125 L 1.953125 -1.53125 L 1.453125 0 L 0.09375 0 L 2.40625 -6.65625 L 4.09375 -6.65625 Z M 3.171875 -5.265625 L 2.3125 -2.640625 L 4.140625 -2.640625 L 3.28125 -5.265625 Z M 3.171875 -5.265625 "/></g></g></g><g fill="#ffffff" fill-opacity="1"><g transform="translate(196.499534, 237.850501)"><g><path d="M 2.140625 0 L 0.859375 0 L 0.859375 -6.65625 L 2.375 -6.65625 L 5.046875 -2.375 L 5.171875 -2.390625 L 5.171875 -6.65625 L 6.4375 -6.65625 L 6.4375 0 L 5.078125 0 L 2.25 -4.578125 L 2.140625 -4.5625 Z M 2.140625 0 "/></g></g></g><g fill="#ffffff" fill-opacity="1"><g transform="translate(208.421221, 237.850501)"><g><path d="M 6.390625 0 L 5 0 L 4.5 -1.53125 L 1.953125 -1.53125 L 1.453125 0 L 0.09375 0 L 2.40625 -6.65625 L 4.09375 -6.65625 Z M 3.171875 -5.265625 L 2.3125 -2.640625 L 4.140625 -2.640625 L 3.28125 -5.265625 Z M 3.171875 -5.265625 "/></g></g></g><g fill="#ffffff" fill-opacity="1"><g transform="translate(219.532164, 237.850501)"><g><path d="M 3.234375 0.09375 C 2.679688 0.09375 2.203125 -0.03125 1.796875 -0.28125 C 1.390625 -0.539062 1.078125 -0.925781 0.859375 -1.4375 C 0.640625 -1.945312 0.53125 -2.578125 0.53125 -3.328125 C 0.53125 -4.085938 0.660156 -4.722656 0.921875 -5.234375 C 1.179688 -5.742188 1.546875 -6.125 2.015625 -6.375 C 2.484375 -6.625 3.03125 -6.75 3.65625 -6.75 C 4.289062 -6.75 4.832031 -6.628906 5.28125 -6.390625 C 5.726562 -6.160156 6.046875 -5.8125 6.234375 -5.34375 L 5.265625 -4.765625 L 5.15625 -4.765625 C 5.019531 -5.054688 4.828125 -5.269531 4.578125 -5.40625 C 4.328125 -5.550781 4.019531 -5.625 3.65625 -5.625 C 3.082031 -5.625 2.640625 -5.441406 2.328125 -5.078125 C 2.023438 -4.710938 1.875 -4.128906 1.875 -3.328125 C 1.875 -2.523438 2.015625 -1.941406 2.296875 -1.578125 C 2.585938 -1.210938 3.007812 -1.03125 3.5625 -1.03125 C 4.039062 -1.03125 4.394531 -1.132812 4.625 -1.34375 C 4.851562 -1.5625 4.96875 -1.882812 4.96875 -2.3125 L 4.96875 -2.609375 L 3.390625 -2.609375 L 3.390625 -3.671875 L 6.28125 -3.671875 L 6.28125 0 L 5.015625 0 L 5.015625 -0.890625 L 4.921875 -0.90625 C 4.785156 -0.582031 4.578125 -0.332031 4.296875 -0.15625 C 4.023438 0.0078125 3.671875 0.09375 3.234375 0.09375 Z M 3.234375 0.09375 "/></g></g></g><g fill="#ffffff" fill-opacity="1"><g transform="translate(231.098581, 237.850501)"><g><path d="M 2.1875 -2.921875 L 2.1875 -1.109375 L 5.359375 -1.109375 L 5.359375 0 L 0.859375 0 L 0.859375 -6.65625 L 5.28125 -6.65625 L 5.28125 -5.5625 L 2.1875 -5.5625 L 2.1875 -4 L 4.890625 -4 L 4.890625 -2.921875 Z M 2.1875 -2.921875 "/></g></g></g><g fill="#ffffff" fill-opacity="1"><g transform="translate(241.444325, 237.850501)"><g><path d="M 0.859375 0 L 0.859375 -6.65625 L 3.53125 -6.65625 C 4.226562 -6.65625 4.75 -6.492188 5.09375 -6.171875 C 5.445312 -5.859375 5.625 -5.425781 5.625 -4.875 C 5.625 -4.46875 5.519531 -4.132812 5.3125 -3.875 C 5.113281 -3.613281 4.8125 -3.414062 4.40625 -3.28125 L 4.40625 -3.1875 C 4.613281 -3.09375 4.78125 -2.957031 4.90625 -2.78125 C 5.03125 -2.601562 5.15625 -2.335938 5.28125 -1.984375 L 5.9375 0 L 4.59375 0 L 3.9375 -1.984375 C 3.863281 -2.191406 3.785156 -2.347656 3.703125 -2.453125 C 3.617188 -2.566406 3.515625 -2.648438 3.390625 -2.703125 C 3.265625 -2.753906 3.097656 -2.78125 2.890625 -2.78125 L 2.1875 -2.78125 L 2.1875 0 Z M 3.375 -3.8125 C 4.019531 -3.8125 4.34375 -4.109375 4.34375 -4.703125 C 4.34375 -5.304688 4.019531 -5.609375 3.375 -5.609375 L 2.1875 -5.609375 L 2.1875 -3.8125 Z M 3.375 -3.8125 "/></g></g></g><path stroke-linecap="butt" transform="matrix(0.540469, 0, 0, 0.540469, 98.244279, 160.437822)" fill="none" stroke-linejoin="miter" d="M 3.877309 18.819869 L 39.610175 18.819869 C 40.578663 18.819869 41.062907 19.333023 41.062907 20.366559 C 40.788261 22.867281 40.629256 26.307581 40.593118 30.701914 C 40.549753 35.074565 40.52807 39.815819 40.52807 44.947359 C 40.52807 50.071672 40.571435 55.073116 40.650938 59.944466 C 40.737668 64.80136 40.802716 69.072825 40.838854 72.773316 C 40.882219 76.46658 40.954494 79.054032 41.062907 80.521219 C 41.062907 83.527868 41.149637 86.512834 41.31587 89.476118 C 41.482103 92.439402 41.691701 95.431596 41.944664 98.4527 C 42.031395 99.486235 41.554378 99.999389 40.52807 99.999389 L 4.000177 99.999389 C 3.667711 99.999389 3.537616 99.789791 3.624346 99.370595 C 3.790579 98.235874 3.920675 96.168803 4.000177 93.162154 C 4.086908 90.155505 4.130273 86.78748 4.130273 83.043624 C 4.130273 79.285313 4.10859 75.758283 4.065225 72.455305 C 4.02186 69.137873 3.956812 66.615468 3.877309 64.895318 C 3.877309 62.835474 3.855627 60.125154 3.812262 56.764356 C 3.768897 53.403559 3.725532 49.789798 3.689394 45.923074 C 3.646029 42.034668 3.602664 38.261902 3.559299 34.612004 C 3.515933 30.954878 3.465341 27.753086 3.400293 24.9994 C 3.364155 22.245714 3.342473 20.352104 3.342473 19.325796 C 3.443658 19.239066 3.624346 19.072833 3.877309 18.819869 Z M 3.877309 18.819869 " stroke="#000000" stroke-width="9.681525" stroke-opacity="1" stroke-miterlimit="4"/><g fill="#ffffff" fill-opacity="1"><g transform="translate(98.244279, 214.484705)"><g><path d="M 2.09375 -43.875 L 21.421875 -43.875 C 21.929688 -43.875 22.1875 -43.597656 22.1875 -43.046875 C 22.039062 -41.691406 21.957031 -39.828125 21.9375 -37.453125 C 21.914062 -35.085938 21.90625 -32.519531 21.90625 -29.75 C 21.90625 -26.988281 21.925781 -24.289062 21.96875 -21.65625 C 22.019531 -19.03125 22.054688 -16.71875 22.078125 -14.71875 C 22.097656 -12.71875 22.132812 -11.320312 22.1875 -10.53125 C 22.1875 -8.90625 22.234375 -7.289062 22.328125 -5.6875 C 22.421875 -4.082031 22.535156 -2.46875 22.671875 -0.84375 C 22.722656 -0.28125 22.46875 0 21.90625 0 L 2.15625 0 C 1.976562 0 1.910156 -0.113281 1.953125 -0.34375 C 2.046875 -0.945312 2.113281 -2.0625 2.15625 -3.6875 C 2.207031 -5.320312 2.234375 -7.148438 2.234375 -9.171875 C 2.234375 -11.191406 2.21875 -13.097656 2.1875 -14.890625 C 2.164062 -16.679688 2.132812 -18.039062 2.09375 -18.96875 C 2.09375 -20.09375 2.078125 -21.5625 2.046875 -23.375 C 2.023438 -25.1875 2.003906 -27.140625 1.984375 -29.234375 C 1.960938 -31.328125 1.941406 -33.359375 1.921875 -35.328125 C 1.898438 -37.304688 1.875 -39.039062 1.84375 -40.53125 C 1.820312 -42.019531 1.8125 -43.046875 1.8125 -43.609375 C 1.863281 -43.648438 1.957031 -43.738281 2.09375 -43.875 Z M 2.09375 -43.875 "/></g></g></g><g clip-path="url(#d544fa9c52)"><g clip-path="url(#9e46d6b397)"><g clip-path="url(#5c2e245b0f)"><path fill="#000000" d="M 107.207031 171.242188 L 103.152344 193.570312 L 110.046875 192.757812 L 108.890625 213.722656 L 120.949219 185.203125 L 114.429688 185.902344 L 121.695312 169.847656 Z M 107.207031 171.242188 " fill-opacity="1" fill-rule="nonzero"/></g></g></g><path stroke-linecap="butt" transform="matrix(0.575808, 0, 0, 0.575808, 214.771543, 157.452383)" fill="none" stroke-linejoin="miter" d="M 74.877678 43.845917 C 74.877678 46.091402 74.877678 48.811764 74.877678 52.007001 C 74.877678 55.175103 74.877678 58.356773 74.877678 61.55201 C 74.877678 64.726896 74.877678 67.386202 74.877678 69.523144 C 74.877678 72.88798 74.463857 75.777941 73.649784 78.193025 C 72.828927 80.587757 71.763847 82.996057 70.46133 85.411141 C 69.348763 87.466676 67.971623 89.298341 66.336692 90.892567 C 64.71533 92.486794 63.005776 93.843583 61.201247 94.95615 C 58.948978 96.346858 56.68314 97.513696 54.390167 98.456665 C 52.12433 99.399633 49.098691 99.874509 45.320034 99.874509 C 44.790887 99.874509 43.6444 99.874509 41.880575 99.874509 C 40.11675 99.874509 38.203677 99.874509 36.148142 99.874509 C 34.085824 99.874509 32.260943 99.874509 30.659932 99.874509 C 29.065705 99.874509 28.224496 99.874509 28.143089 99.874509 C 24.615438 99.70491 21.291305 98.822998 18.184259 97.228771 C 15.097565 95.62776 12.607857 93.884287 10.715137 91.99835 C 9.683978 90.967191 8.584979 89.461155 7.404573 87.487028 C 6.251302 85.492548 5.281198 83.423445 4.507829 81.279719 C 3.727675 79.135993 3.34099 77.250056 3.34099 75.608342 C 3.34099 74.407584 3.34099 72.433456 3.34099 69.685959 C 3.34099 66.911326 3.34099 63.851767 3.34099 60.514067 C 3.34099 57.149231 3.34099 53.926858 3.34099 50.840163 C 3.34099 47.726333 3.34099 45.229842 3.34099 43.337121 C 3.34099 39.639872 3.917625 36.397147 5.070896 33.602162 C 6.251302 30.786825 7.614875 28.568476 9.168398 26.953897 C 11.922679 24.009665 14.514146 22.042322 16.956365 21.05865 C 19.412153 20.068194 22.403872 19.369448 25.938307 18.948843 C 26.019714 18.860652 26.962683 18.8403 28.773996 18.881004 C 30.578525 18.928491 32.796874 18.948843 35.42226 18.948843 C 38.047647 18.948843 40.673033 18.948843 43.298419 18.948843 C 45.923805 18.948843 48.060748 18.948843 49.695678 18.948843 C 53.060514 18.948843 56.153993 19.416935 58.996465 20.366687 C 61.832154 21.309656 64.416836 22.897099 66.743729 25.122232 C 69.138461 27.374501 71.092237 30.237326 72.605056 33.724273 C 74.117876 37.21122 74.877678 40.58284 74.877678 43.845917 Z M 33.814466 67.101276 C 33.814466 70.438977 34.26899 72.657326 35.171255 73.749541 C 36.073519 74.821404 37.220006 75.357336 38.60393 75.357336 C 40.327052 75.357336 41.398915 74.577182 41.819519 73.023659 C 42.260476 71.470136 42.477562 70.221891 42.477562 69.272138 C 42.477562 66.015845 42.545401 62.58317 42.667512 58.967328 C 42.796407 55.337918 42.816759 52.319063 42.735352 49.924331 C 42.565753 47.950203 42.260476 46.267785 41.819519 44.88386 C 41.398915 43.493152 40.327052 42.80119 38.60393 42.80119 C 37.050407 42.80119 35.944624 43.21501 35.293366 44.029083 C 34.662459 44.849941 34.255422 45.806477 34.065472 46.898692 C 33.895873 47.970555 33.814466 48.845684 33.814466 49.517294 C 33.814466 50.378855 33.814466 51.783131 33.814466 53.736907 C 33.814466 55.670331 33.814466 57.847977 33.814466 60.263061 C 33.814466 62.657793 33.814466 64.937198 33.814466 67.101276 Z M 33.814466 67.101276 " stroke="#000000" stroke-width="9.681525" stroke-opacity="1" stroke-miterlimit="4"/><g fill="#ffffff" fill-opacity="1"><g transform="translate(214.771543, 215.033196)"><g><path d="M 43.109375 -32.328125 C 43.109375 -31.046875 43.109375 -29.488281 43.109375 -27.65625 C 43.109375 -25.820312 43.109375 -23.988281 43.109375 -22.15625 C 43.109375 -20.320312 43.109375 -18.785156 43.109375 -17.546875 C 43.109375 -15.609375 42.875 -13.945312 42.40625 -12.5625 C 41.9375 -11.175781 41.328125 -9.789062 40.578125 -8.40625 C 39.929688 -7.207031 39.140625 -6.148438 38.203125 -5.234375 C 37.265625 -4.316406 36.273438 -3.539062 35.234375 -2.90625 C 33.941406 -2.101562 32.640625 -1.429688 31.328125 -0.890625 C 30.015625 -0.347656 28.269531 -0.078125 26.09375 -0.078125 C 25.789062 -0.078125 25.128906 -0.078125 24.109375 -0.078125 C 23.097656 -0.078125 22 -0.078125 20.8125 -0.078125 C 19.625 -0.078125 18.570312 -0.078125 17.65625 -0.078125 C 16.738281 -0.078125 16.253906 -0.078125 16.203125 -0.078125 C 14.171875 -0.171875 12.257812 -0.675781 10.46875 -1.59375 C 8.6875 -2.507812 7.253906 -3.515625 6.171875 -4.609375 C 5.578125 -5.203125 4.941406 -6.066406 4.265625 -7.203125 C 3.597656 -8.347656 3.039062 -9.539062 2.59375 -10.78125 C 2.15625 -12.019531 1.9375 -13.109375 1.9375 -14.046875 C 1.9375 -14.742188 1.9375 -15.882812 1.9375 -17.46875 C 1.9375 -19.050781 1.9375 -20.804688 1.9375 -22.734375 C 1.9375 -24.671875 1.9375 -26.53125 1.9375 -28.3125 C 1.9375 -30.101562 1.9375 -31.539062 1.9375 -32.625 C 1.9375 -34.757812 2.269531 -36.628906 2.9375 -38.234375 C 3.601562 -39.847656 4.382812 -41.125 5.28125 -42.0625 C 6.863281 -43.75 8.359375 -44.878906 9.765625 -45.453125 C 11.179688 -46.023438 12.90625 -46.429688 14.9375 -46.671875 C 14.988281 -46.722656 15.535156 -46.734375 16.578125 -46.703125 C 17.617188 -46.679688 18.894531 -46.671875 20.40625 -46.671875 C 21.914062 -46.671875 23.425781 -46.671875 24.9375 -46.671875 C 26.445312 -46.671875 27.671875 -46.671875 28.609375 -46.671875 C 30.546875 -46.671875 32.332031 -46.398438 33.96875 -45.859375 C 35.601562 -45.316406 37.085938 -44.398438 38.421875 -43.109375 C 39.816406 -41.816406 40.945312 -40.164062 41.8125 -38.15625 C 42.675781 -36.15625 43.109375 -34.210938 43.109375 -32.328125 Z M 19.46875 -18.953125 C 19.46875 -17.023438 19.726562 -15.75 20.25 -15.125 C 20.769531 -14.507812 21.425781 -14.203125 22.21875 -14.203125 C 23.207031 -14.203125 23.828125 -14.644531 24.078125 -15.53125 C 24.328125 -16.425781 24.453125 -17.144531 24.453125 -17.6875 C 24.453125 -19.570312 24.488281 -21.554688 24.5625 -23.640625 C 24.632812 -25.722656 24.648438 -27.457031 24.609375 -28.84375 C 24.503906 -29.976562 24.328125 -30.941406 24.078125 -31.734375 C 23.828125 -32.523438 23.207031 -32.921875 22.21875 -32.921875 C 21.332031 -32.921875 20.703125 -32.6875 20.328125 -32.21875 C 19.953125 -31.75 19.710938 -31.203125 19.609375 -30.578125 C 19.515625 -29.960938 19.46875 -29.457031 19.46875 -29.0625 C 19.46875 -28.5625 19.46875 -27.753906 19.46875 -26.640625 C 19.46875 -25.523438 19.46875 -24.273438 19.46875 -22.890625 C 19.46875 -21.503906 19.46875 -20.191406 19.46875 -18.953125 Z M 19.46875 -18.953125 "/></g></g></g></svg>