<svg xmlns="http://www.w3.org/2000/svg" xmlns:xlink="http://www.w3.org/1999/xlink" width="500" zoomAndPan="magnify" viewBox="0 0 375 374.999991" height="500" preserveAspectRatio="xMidYMid meet" version="1.0"><defs><g/><clipPath id="2c3f22c58c"><path d="M 26.289062 234 L 56 234 L 56 266 L 26.289062 266 Z M 26.289062 234 " clip-rule="nonzero"/></clipPath></defs><path fill="#2bb1bf" d="M 39.988281 246.269531 C 37.898438 246.269531 35.972656 244.746094 35.652344 242.578125 C 30.269531 211.925781 42.878906 175.976562 83.1875 164.742188 C 85.597656 164.101562 88.007812 165.464844 88.648438 167.792969 C 89.292969 170.121094 87.925781 172.605469 85.597656 173.25 C 48.179688 183.601562 39.988281 216.257812 44.402344 240.972656 C 44.804688 243.382812 43.199219 245.707031 40.789062 246.109375 C 40.46875 246.269531 40.230469 246.269531 39.988281 246.269531 Z M 39.988281 246.269531 " fill-opacity="1" fill-rule="nonzero"/><g clip-path="url(#2c3f22c58c)"><path fill="#249fbc" d="M 52.59375 240.972656 C 49.863281 233.753906 43.601562 233.429688 37.097656 234.472656 C 32.441406 235.195312 27.300781 239.609375 26.820312 246.109375 C 26.335938 252.609375 27.621094 257.101562 29.46875 259.992188 C 31.234375 262.878906 33.804688 263.28125 35.410156 262.078125 C 35.972656 262.878906 36.535156 263.523438 37.257812 264.003906 C 40.230469 266.007812 41.675781 264.40625 42.074219 263.363281 C 43.761719 265.046875 45.609375 265.929688 47.054688 265.367188 C 49.863281 264.164062 45.449219 257.664062 44.644531 254.777344 C 43.84375 251.886719 44.402344 248.835938 46.011719 248.4375 C 47.617188 247.953125 48.339844 250.363281 49.140625 252.929688 C 49.863281 255.496094 53.316406 256.621094 54.84375 255.335938 C 56.128906 253.972656 55.324219 248.195312 52.59375 240.972656 Z M 52.59375 240.972656 " fill-opacity="1" fill-rule="nonzero"/></g><path fill="#2bb1bf" d="M 276.953125 198.925781 C 275.105469 198.925781 273.257812 198.765625 271.332031 198.363281 C 247.722656 194.03125 245.3125 169.398438 247.320312 157.039062 C 247.722656 154.632812 249.972656 152.949219 252.378906 153.347656 C 254.789062 153.75 256.394531 155.996094 256.074219 158.40625 C 255.914062 159.527344 251.980469 185.765625 272.9375 189.617188 C 293.816406 193.46875 307.707031 164.984375 307.867188 164.664062 C 308.910156 162.417969 311.5625 161.535156 313.808594 162.578125 C 315.976562 163.621094 316.941406 166.269531 315.898438 168.515625 C 315.253906 169.960938 301.042969 198.925781 276.953125 198.925781 Z M 276.953125 198.925781 " fill-opacity="1" fill-rule="nonzero"/><path fill="#fdd51a" d="M 317.261719 204.785156 L 327.539062 143.71875 C 337.175781 142.757812 345.449219 135.695312 347.457031 125.664062 C 348.738281 119.328125 347.214844 113.148438 343.839844 108.253906 L 339.34375 107.371094 L 336.292969 122.617188 L 324.328125 127.191406 L 314.691406 118.28125 L 317.746094 103.035156 L 313.246094 102.15625 C 308.1875 105.363281 304.414062 110.5 303.128906 116.757812 C 301.121094 126.707031 306.019531 136.5 314.53125 141.070312 L 300.238281 201.335938 C 299.113281 206.148438 302.085938 210.882812 306.984375 211.847656 C 311.800781 212.890625 316.539062 209.597656 317.261719 204.785156 Z M 308.429688 205.90625 C 306.902344 205.585938 305.859375 204.0625 306.179688 202.539062 C 306.503906 201.011719 308.027344 199.96875 309.554688 200.289062 C 311.078125 200.613281 312.125 202.136719 311.800781 203.660156 C 311.480469 205.265625 310.035156 206.230469 308.429688 205.90625 Z M 308.429688 205.90625 " fill-opacity="1" fill-rule="nonzero"/><path fill="#249fbc" d="M 306.742188 174.050781 C 304.335938 172.207031 301.523438 168.835938 301.445312 165.464844 C 301.363281 159.527344 303.53125 151.664062 311 147.972656 C 318.546875 144.28125 323.925781 147.089844 322.804688 150.300781 C 321.839844 153.027344 315.976562 152.304688 311.160156 155.195312 Z M 306.742188 174.050781 " fill-opacity="1" fill-rule="nonzero"/><path fill="#249fbc" d="M 321.359375 153.75 C 318.304688 153.992188 314.53125 154.390625 314.132812 157.441406 C 313.730469 160.492188 318.066406 160.492188 321.679688 160.570312 C 325.292969 160.652344 329.226562 160.332031 328.824219 156.558594 C 328.425781 152.789062 323.367188 153.589844 321.359375 153.75 Z M 321.359375 153.75 " fill-opacity="1" fill-rule="nonzero"/><path fill="#249fbc" d="M 321.359375 160.730469 C 318.144531 160.652344 314.132812 160.730469 313.410156 163.859375 C 312.683594 166.992188 317.183594 167.472656 320.957031 167.871094 C 324.730469 168.273438 328.824219 168.355469 328.90625 164.34375 C 328.90625 160.410156 323.527344 160.8125 321.359375 160.730469 Z M 321.359375 160.730469 " fill-opacity="1" fill-rule="nonzero"/><path fill="#249fbc" d="M 320.636719 167.953125 C 317.746094 167.472656 314.050781 166.992188 313.007812 169.796875 C 311.960938 172.527344 315.976562 173.570312 319.351562 174.371094 C 322.722656 175.253906 326.417969 175.816406 326.980469 172.285156 C 327.539062 168.59375 322.5625 168.195312 320.636719 167.953125 Z M 320.636719 167.953125 " fill-opacity="1" fill-rule="nonzero"/><path fill="#2bb1bf" d="M 216.808594 281.816406 C 214.558594 281.816406 212.632812 279.972656 212.632812 277.644531 L 212.632812 220.992188 C 212.632812 218.746094 214.480469 216.820312 216.808594 216.820312 C 219.054688 216.820312 220.984375 218.667969 220.984375 220.992188 L 220.984375 277.644531 C 220.902344 279.972656 219.054688 281.816406 216.808594 281.816406 Z M 216.808594 281.816406 " fill-opacity="1" fill-rule="nonzero"/><path fill="#249fbc" d="M 212.390625 276.359375 C 212.390625 276.359375 207.652344 277.003906 207.011719 282.859375 C 206.367188 288.71875 206.609375 294.175781 208.214844 295.058594 C 209.820312 296.019531 214.558594 295.78125 224.835938 295.78125 C 235.117188 295.78125 242.023438 295.78125 244.351562 295.78125 C 246.679688 295.78125 247.644531 290.484375 245.3125 285.910156 C 241.941406 279.25 233.109375 278.609375 229.253906 278.445312 C 225.320312 278.285156 227.96875 273.710938 225.160156 272.832031 C 223.792969 272.347656 222.429688 272.347656 221.707031 272.832031 C 220.824219 273.390625 220.824219 274.675781 220.824219 275.960938 C 220.902344 278.046875 213.675781 279.570312 212.390625 276.359375 Z M 212.390625 276.359375 " fill-opacity="1" fill-rule="nonzero"/><path fill="#2bb1bf" d="M 117.234375 281.816406 C 114.988281 281.816406 113.058594 279.972656 113.058594 277.644531 L 113.058594 220.992188 C 113.058594 218.746094 114.90625 216.820312 117.234375 216.820312 C 119.484375 216.820312 121.410156 218.667969 121.410156 220.992188 L 121.410156 277.644531 C 121.332031 279.972656 119.484375 281.816406 117.234375 281.816406 Z M 117.234375 281.816406 " fill-opacity="1" fill-rule="nonzero"/><path fill="#249fbc" d="M 121.570312 276.359375 C 121.570312 276.359375 126.308594 277.003906 126.953125 282.859375 C 127.59375 288.71875 127.355469 294.175781 125.746094 295.058594 C 124.140625 296.019531 119.402344 295.78125 109.125 295.78125 C 98.847656 295.78125 91.941406 295.78125 89.613281 295.78125 C 87.285156 295.78125 86.320312 290.484375 88.648438 285.910156 C 92.023438 279.25 100.855469 278.609375 104.710938 278.445312 C 108.644531 278.285156 105.992188 273.710938 108.804688 272.832031 C 110.167969 272.347656 111.535156 272.347656 112.257812 272.832031 C 113.140625 273.390625 113.140625 274.675781 113.140625 275.960938 C 113.058594 278.046875 120.367188 279.570312 121.570312 276.359375 Z M 121.570312 276.359375 " fill-opacity="1" fill-rule="nonzero"/><path fill="#39c1d8" d="M 154.011719 83.457031 C 154.011719 83.457031 156.261719 67.410156 182.359375 65.722656 C 208.457031 64.039062 213.757812 83.457031 213.757812 83.457031 Z M 154.011719 83.457031 " fill-opacity="1" fill-rule="evenodd"/><path fill="#5eccfc" d="M 163.085938 79.847656 L 92.34375 83.699219 C 92.34375 83.699219 61.75 84.019531 62.710938 118.765625 C 63.675781 153.507812 68.65625 213.371094 68.65625 213.371094 C 68.65625 213.371094 65.925781 241.054688 103.90625 239.367188 C 141.886719 237.683594 235.355469 234.472656 235.355469 234.472656 C 235.355469 234.472656 260.652344 237.925781 263.300781 200.773438 C 265.949219 163.621094 262.417969 111.300781 262.417969 111.300781 C 262.417969 111.300781 265.46875 80.890625 229.253906 80.648438 C 193.039062 80.410156 163.085938 79.847656 163.085938 79.847656 Z M 163.085938 79.847656 " fill-opacity="1" fill-rule="evenodd"/><path fill="#ffffff" d="M 227.488281 196.117188 C 225.480469 206.390625 217.933594 214.574219 207.894531 217.625 C 193.761719 221.796875 175.613281 225.566406 154.414062 225.96875 C 133.617188 226.371094 115.710938 223.5625 101.738281 220.03125 C 92.421875 217.703125 84.875 210.722656 81.984375 201.574219 C 78.371094 190.339844 75.160156 175.976562 74.515625 159.125 C 73.953125 144.683594 75.480469 131.84375 77.648438 121.414062 C 79.816406 110.902344 87.847656 102.554688 98.367188 100.066406 C 113.222656 96.539062 130.886719 93.488281 150.800781 92.445312 C 172.5625 91.320312 191.996094 92.6875 208.136719 95.09375 C 217.933594 96.539062 225.640625 103.917969 227.566406 113.628906 C 229.734375 124.941406 231.421875 138.183594 231.582031 153.027344 C 231.582031 169.398438 229.816406 183.921875 227.488281 196.117188 Z M 227.488281 196.117188 " fill-opacity="1" fill-rule="evenodd"/><path fill="#39c1d8" d="M 210.703125 213.449219 C 196.570312 217.625 178.425781 221.394531 157.226562 221.796875 C 136.425781 222.195312 118.519531 219.386719 104.546875 215.859375 C 95.234375 213.53125 87.6875 206.550781 84.796875 197.402344 C 81.179688 186.167969 77.96875 171.804688 77.328125 154.953125 C 76.765625 140.511719 78.289062 127.671875 80.457031 117.238281 C 81.019531 114.511719 81.984375 112.023438 83.1875 109.695312 C 80.457031 113.066406 78.53125 117.078125 77.648438 121.414062 C 75.480469 131.925781 73.953125 144.683594 74.515625 159.125 C 75.160156 175.898438 78.371094 190.339844 81.984375 201.574219 C 84.875 210.722656 92.421875 217.703125 101.738281 220.03125 C 115.710938 223.480469 133.699219 226.371094 154.414062 225.96875 C 175.613281 225.566406 193.761719 221.796875 207.894531 217.625 C 215.121094 215.457031 221.0625 210.5625 224.597656 204.144531 C 221.0625 208.476562 216.246094 211.765625 210.703125 213.449219 Z M 210.703125 213.449219 " fill-opacity="1" fill-rule="evenodd"/><path fill="#39c1d8" d="M 222.949219 21.121094 C 223.125 21.539062 223.253906 21.96875 223.34375 22.414062 C 223.429688 22.859375 223.476562 23.308594 223.476562 23.761719 C 223.476562 24.214844 223.429688 24.664062 223.34375 25.105469 C 223.253906 25.550781 223.125 25.984375 222.949219 26.402344 C 222.777344 26.820312 222.5625 27.21875 222.3125 27.59375 C 222.058594 27.972656 221.773438 28.320312 221.453125 28.640625 C 221.132812 28.960938 220.785156 29.246094 220.40625 29.5 C 220.03125 29.75 219.632812 29.964844 219.210938 30.136719 C 218.792969 30.308594 218.363281 30.441406 217.917969 30.527344 C 217.472656 30.617188 217.023438 30.660156 216.570312 30.660156 C 216.117188 30.660156 215.667969 30.617188 215.222656 30.527344 C 214.777344 30.441406 214.347656 30.308594 213.925781 30.136719 C 213.507812 29.964844 213.109375 29.75 212.734375 29.5 C 212.355469 29.246094 212.007812 28.960938 211.6875 28.640625 C 211.367188 28.320312 211.078125 27.972656 210.828125 27.59375 C 210.574219 27.21875 210.363281 26.820312 210.191406 26.402344 C 210.015625 25.984375 209.886719 25.550781 209.796875 25.105469 C 209.707031 24.664062 209.664062 24.214844 209.664062 23.761719 C 209.664062 23.308594 209.707031 22.859375 209.796875 22.414062 C 209.886719 21.96875 210.015625 21.539062 210.191406 21.121094 C 210.363281 20.703125 210.574219 20.304688 210.828125 19.925781 C 211.078125 19.550781 211.367188 19.203125 211.6875 18.882812 C 212.007812 18.5625 212.355469 18.273438 212.734375 18.023438 C 213.109375 17.769531 213.507812 17.558594 213.925781 17.386719 C 214.347656 17.210938 214.777344 17.082031 215.222656 16.992188 C 215.667969 16.90625 216.117188 16.859375 216.570312 16.859375 C 217.023438 16.859375 217.472656 16.90625 217.917969 16.992188 C 218.363281 17.082031 218.792969 17.210938 219.210938 17.386719 C 219.632812 17.558594 220.027344 17.769531 220.40625 18.023438 C 220.785156 18.273438 221.132812 18.5625 221.453125 18.882812 C 221.773438 19.203125 222.058594 19.550781 222.3125 19.925781 C 222.5625 20.304688 222.777344 20.703125 222.949219 21.121094 Z M 222.949219 21.121094 " fill-opacity="1" fill-rule="nonzero"/><path fill="#39c1d8" d="M 152.335938 17.074219 C 152.777344 17.175781 153.207031 17.324219 153.617188 17.511719 C 154.03125 17.699219 154.421875 17.925781 154.789062 18.191406 C 155.15625 18.457031 155.496094 18.753906 155.804688 19.085938 C 156.113281 19.417969 156.386719 19.777344 156.625 20.160156 C 156.863281 20.546875 157.0625 20.953125 157.21875 21.375 C 157.378906 21.800781 157.496094 22.234375 157.566406 22.683594 C 157.640625 23.128906 157.667969 23.582031 157.652344 24.035156 C 157.636719 24.488281 157.574219 24.933594 157.472656 25.375 C 157.367188 25.816406 157.222656 26.242188 157.03125 26.652344 C 156.84375 27.066406 156.617188 27.457031 156.351562 27.824219 C 156.085938 28.191406 155.789062 28.53125 155.457031 28.839844 C 155.125 29.148438 154.765625 29.421875 154.382812 29.660156 C 153.996094 29.898438 153.589844 30.09375 153.164062 30.253906 C 152.742188 30.414062 152.304688 30.527344 151.855469 30.601562 C 151.410156 30.671875 150.957031 30.699219 150.503906 30.683594 C 150.050781 30.667969 149.605469 30.609375 149.164062 30.503906 C 148.722656 30.402344 148.296875 30.253906 147.882812 30.066406 C 147.46875 29.878906 147.082031 29.652344 146.710938 29.386719 C 146.34375 29.121094 146.007812 28.824219 145.695312 28.492188 C 145.386719 28.160156 145.113281 27.800781 144.875 27.417969 C 144.636719 27.03125 144.4375 26.625 144.28125 26.203125 C 144.121094 25.777344 144.007812 25.339844 143.933594 24.894531 C 143.863281 24.445312 143.832031 23.996094 143.847656 23.542969 C 143.867188 23.089844 143.925781 22.644531 144.03125 22.203125 C 144.132812 21.761719 144.28125 21.335938 144.46875 20.921875 C 144.65625 20.511719 144.882812 20.121094 145.148438 19.753906 C 145.414062 19.386719 145.710938 19.046875 146.042969 18.738281 C 146.375 18.429688 146.734375 18.15625 147.121094 17.917969 C 147.507812 17.679688 147.910156 17.480469 148.335938 17.324219 C 148.761719 17.164062 149.199219 17.050781 149.644531 16.976562 C 150.09375 16.902344 150.542969 16.875 150.996094 16.890625 C 151.449219 16.90625 151.894531 16.96875 152.335938 17.074219 Z M 152.335938 17.074219 " fill-opacity="1" fill-rule="nonzero"/><path fill="#249fbc" d="M 249.488281 109.214844 C 249.488281 111.945312 247.242188 114.191406 244.511719 114.191406 C 241.78125 114.191406 239.53125 111.945312 239.53125 109.214844 C 239.53125 106.488281 241.78125 104.242188 244.511719 104.242188 C 247.242188 104.242188 249.488281 106.488281 249.488281 109.214844 Z M 249.488281 109.214844 " fill-opacity="1" fill-rule="evenodd"/><path fill="#249fbc" d="M 251.335938 131.042969 C 251.335938 133.289062 249.488281 135.214844 247.160156 135.214844 C 244.914062 135.214844 242.984375 133.367188 242.984375 131.042969 C 242.984375 128.792969 244.832031 126.867188 247.160156 126.867188 C 249.488281 126.949219 251.335938 128.792969 251.335938 131.042969 Z M 251.335938 131.042969 " fill-opacity="1" fill-rule="evenodd"/><path fill="#249fbc" d="M 250.695312 151.421875 C 250.695312 153.347656 249.167969 154.875 247.242188 154.875 C 245.3125 154.875 243.789062 153.347656 243.789062 151.421875 C 243.789062 149.496094 245.3125 147.972656 247.242188 147.972656 C 249.167969 147.972656 250.695312 149.496094 250.695312 151.421875 Z M 250.695312 151.421875 " fill-opacity="1" fill-rule="evenodd"/><path fill="#39c1d8" d="M 213.917969 25.042969 L 190.550781 71.179688 L 198.820312 73.988281 L 217.046875 25.925781 Z M 213.917969 25.042969 " fill-opacity="1" fill-rule="evenodd"/><path fill="#39c1d8" d="M 152.96875 25.042969 L 176.335938 71.179688 L 168.066406 73.988281 L 149.835938 25.925781 Z M 152.96875 25.042969 " fill-opacity="1" fill-rule="evenodd"/><path fill="#fdd51a" d="M 134.097656 170.199219 L 128.960938 170.199219 L 128.960938 179.265625 L 116.511719 179.265625 L 116.511719 170.199219 L 97.882812 170.199219 L 97.882812 160.890625 L 117.316406 132.484375 L 128.960938 132.484375 L 128.960938 160.730469 L 134.097656 160.730469 Z M 116.433594 160.8125 L 116.433594 155.355469 C 116.433594 154.3125 116.433594 152.949219 116.511719 151.183594 C 116.59375 149.417969 116.675781 148.535156 116.675781 148.453125 L 116.351562 148.453125 C 115.628906 150.058594 114.828125 151.664062 113.863281 153.027344 L 108.644531 160.730469 L 116.433594 160.730469 Z M 116.433594 160.8125 " fill-opacity="1" fill-rule="nonzero"/><path fill="#fdd51a" d="M 171.117188 155.917969 C 171.117188 164.183594 169.753906 170.28125 166.941406 174.132812 C 164.132812 177.984375 159.957031 179.910156 154.175781 179.910156 C 148.554688 179.910156 144.378906 177.902344 141.566406 173.890625 C 138.757812 169.878906 137.3125 163.859375 137.3125 155.996094 C 137.3125 147.652344 138.675781 141.554688 141.488281 137.703125 C 144.296875 133.851562 148.472656 131.84375 154.253906 131.84375 C 159.792969 131.84375 164.050781 133.851562 166.859375 137.941406 C 169.753906 141.953125 171.117188 147.972656 171.117188 155.917969 Z M 149.917969 155.917969 C 149.917969 161.210938 150.238281 164.824219 150.882812 166.828125 C 151.523438 168.835938 152.648438 169.796875 154.175781 169.796875 C 155.78125 169.796875 156.902344 168.753906 157.546875 166.75 C 158.1875 164.664062 158.511719 161.132812 158.511719 155.917969 C 158.511719 150.699219 158.1875 147.089844 157.546875 145.003906 C 156.902344 142.917969 155.78125 141.875 154.253906 141.875 C 152.726562 141.875 151.605469 142.835938 150.960938 144.84375 C 150.238281 146.929688 149.917969 150.621094 149.917969 155.917969 Z M 149.917969 155.917969 " fill-opacity="1" fill-rule="nonzero"/><path fill="#fdd51a" d="M 210.867188 170.199219 L 205.726562 170.199219 L 205.726562 179.265625 L 193.28125 179.265625 L 193.28125 170.199219 L 174.648438 170.199219 L 174.648438 160.890625 L 194.082031 132.484375 L 205.726562 132.484375 L 205.726562 160.730469 L 210.867188 160.730469 Z M 193.199219 160.8125 L 193.199219 155.355469 C 193.199219 154.3125 193.199219 152.949219 193.28125 151.183594 C 193.359375 149.417969 193.441406 148.535156 193.441406 148.453125 L 193.121094 148.453125 C 192.398438 150.058594 191.59375 151.664062 190.628906 153.027344 L 185.410156 160.730469 L 193.199219 160.730469 Z M 193.199219 160.8125 " fill-opacity="1" fill-rule="nonzero"/><g fill="#000000" fill-opacity="1"><g transform="translate(12.192184, 332.499998)"><g><path d="M 5.734375 0 L 2.3125 0 L 2.3125 -17.84375 L 6.359375 -17.84375 L 13.53125 -6.34375 L 13.84375 -6.390625 L 13.84375 -17.84375 L 17.234375 -17.84375 L 17.234375 0 L 13.625 0 L 6.046875 -12.28125 L 5.734375 -12.234375 Z M 5.734375 0 "/></g></g></g><g fill="#000000" fill-opacity="1"><g transform="translate(31.757002, 332.499998)"><g><path d="M 7.828125 0.25 C 6.503906 0.25 5.34375 -0.0195312 4.34375 -0.5625 C 3.351562 -1.101562 2.582031 -1.894531 2.03125 -2.9375 C 1.476562 -3.976562 1.203125 -5.238281 1.203125 -6.71875 C 1.203125 -8.207031 1.476562 -9.472656 2.03125 -10.515625 C 2.582031 -11.566406 3.351562 -12.363281 4.34375 -12.90625 C 5.34375 -13.445312 6.503906 -13.71875 7.828125 -13.71875 C 9.140625 -13.71875 10.296875 -13.445312 11.296875 -12.90625 C 12.296875 -12.363281 13.070312 -11.566406 13.625 -10.515625 C 14.175781 -9.472656 14.453125 -8.207031 14.453125 -6.71875 C 14.453125 -5.238281 14.175781 -3.976562 13.625 -2.9375 C 13.070312 -1.894531 12.296875 -1.101562 11.296875 -0.5625 C 10.296875 -0.0195312 9.140625 0.25 7.828125 0.25 Z M 7.828125 -2.609375 C 9.921875 -2.609375 10.96875 -3.976562 10.96875 -6.71875 C 10.96875 -8.144531 10.695312 -9.191406 10.15625 -9.859375 C 9.613281 -10.523438 8.835938 -10.859375 7.828125 -10.859375 C 5.734375 -10.859375 4.6875 -9.476562 4.6875 -6.71875 C 4.6875 -3.976562 5.734375 -2.609375 7.828125 -2.609375 Z M 7.828125 -2.609375 "/></g></g></g><g fill="#000000" fill-opacity="1"><g transform="translate(47.40397, 332.499998)"><g/></g></g><g fill="#000000" fill-opacity="1"><g transform="translate(53.29905, 332.499998)"><g><path d="M 13.640625 -17.84375 L 13.640625 -14.890625 L 5.84375 -14.890625 L 5.84375 -10.171875 L 12.921875 -10.171875 L 12.921875 -7.25 L 5.84375 -7.25 L 5.84375 0 L 2.3125 0 L 2.3125 -17.84375 Z M 13.640625 -17.84375 "/></g></g></g><g fill="#000000" fill-opacity="1"><g transform="translate(67.34713, 332.499998)"><g><path d="M 7.828125 0.25 C 6.503906 0.25 5.34375 -0.0195312 4.34375 -0.5625 C 3.351562 -1.101562 2.582031 -1.894531 2.03125 -2.9375 C 1.476562 -3.976562 1.203125 -5.238281 1.203125 -6.71875 C 1.203125 -8.207031 1.476562 -9.472656 2.03125 -10.515625 C 2.582031 -11.566406 3.351562 -12.363281 4.34375 -12.90625 C 5.34375 -13.445312 6.503906 -13.71875 7.828125 -13.71875 C 9.140625 -13.71875 10.296875 -13.445312 11.296875 -12.90625 C 12.296875 -12.363281 13.070312 -11.566406 13.625 -10.515625 C 14.175781 -9.472656 14.453125 -8.207031 14.453125 -6.71875 C 14.453125 -5.238281 14.175781 -3.976562 13.625 -2.9375 C 13.070312 -1.894531 12.296875 -1.101562 11.296875 -0.5625 C 10.296875 -0.0195312 9.140625 0.25 7.828125 0.25 Z M 7.828125 -2.609375 C 9.921875 -2.609375 10.96875 -3.976562 10.96875 -6.71875 C 10.96875 -8.144531 10.695312 -9.191406 10.15625 -9.859375 C 9.613281 -10.523438 8.835938 -10.859375 7.828125 -10.859375 C 5.734375 -10.859375 4.6875 -9.476562 4.6875 -6.71875 C 4.6875 -3.976562 5.734375 -2.609375 7.828125 -2.609375 Z M 7.828125 -2.609375 "/></g></g></g><g fill="#000000" fill-opacity="1"><g transform="translate(82.994097, 332.499998)"><g><path d="M 5.59375 0.25 C 4.375 0.25 3.445312 -0.0703125 2.8125 -0.71875 C 2.175781 -1.375 1.859375 -2.375 1.859375 -3.71875 L 1.859375 -18.875 L 5.234375 -18.875 L 5.234375 -3.84375 C 5.234375 -3.019531 5.578125 -2.609375 6.265625 -2.609375 C 6.460938 -2.609375 6.671875 -2.640625 6.890625 -2.703125 L 7.0625 -2.65625 L 7.359375 -0.0625 C 7.171875 0.03125 6.921875 0.101562 6.609375 0.15625 C 6.304688 0.21875 5.96875 0.25 5.59375 0.25 Z M 5.59375 0.25 "/></g></g></g><g fill="#000000" fill-opacity="1"><g transform="translate(90.732145, 332.499998)"><g><path d="M 6.65625 0.25 C 5.582031 0.25 4.632812 -0.00390625 3.8125 -0.515625 C 3 -1.035156 2.359375 -1.816406 1.890625 -2.859375 C 1.429688 -3.910156 1.203125 -5.195312 1.203125 -6.71875 C 1.203125 -8.257812 1.441406 -9.550781 1.921875 -10.59375 C 2.398438 -11.644531 3.054688 -12.425781 3.890625 -12.9375 C 4.734375 -13.457031 5.710938 -13.71875 6.828125 -13.71875 C 7.660156 -13.71875 8.382812 -13.570312 9 -13.28125 C 9.613281 -13 10.132812 -12.550781 10.5625 -11.9375 L 10.8125 -12 L 10.8125 -18.875 L 14.203125 -18.875 L 14.203125 0 L 10.8125 0 L 10.8125 -1.75 L 10.5625 -1.796875 C 10.1875 -1.160156 9.671875 -0.660156 9.015625 -0.296875 C 8.367188 0.0664062 7.582031 0.25 6.65625 0.25 Z M 7.75 -2.609375 C 8.707031 -2.609375 9.460938 -2.945312 10.015625 -3.625 C 10.566406 -4.3125 10.84375 -5.34375 10.84375 -6.71875 C 10.84375 -8.101562 10.566406 -9.140625 10.015625 -9.828125 C 9.460938 -10.515625 8.707031 -10.859375 7.75 -10.859375 C 6.757812 -10.859375 6 -10.523438 5.46875 -9.859375 C 4.945312 -9.191406 4.6875 -8.144531 4.6875 -6.71875 C 4.6875 -5.3125 4.945312 -4.273438 5.46875 -3.609375 C 6 -2.941406 6.757812 -2.609375 7.75 -2.609375 Z M 7.75 -2.609375 "/></g></g></g><g fill="#000000" fill-opacity="1"><g transform="translate(106.867318, 332.499998)"><g><path d="M 13.3125 -5.96875 L 4.65625 -5.96875 C 4.75 -4.800781 5.078125 -3.945312 5.640625 -3.40625 C 6.210938 -2.875 6.992188 -2.609375 7.984375 -2.609375 C 8.753906 -2.609375 9.378906 -2.753906 9.859375 -3.046875 C 10.335938 -3.335938 10.722656 -3.773438 11.015625 -4.359375 L 11.28125 -4.359375 L 13.53125 -2.921875 C 13.082031 -1.972656 12.414062 -1.207031 11.53125 -0.625 C 10.644531 -0.0390625 9.460938 0.25 7.984375 0.25 C 6.585938 0.25 5.382812 -0.0078125 4.375 -0.53125 C 3.363281 -1.0625 2.582031 -1.847656 2.03125 -2.890625 C 1.476562 -3.941406 1.203125 -5.21875 1.203125 -6.71875 C 1.203125 -8.25 1.488281 -9.539062 2.0625 -10.59375 C 2.644531 -11.644531 3.425781 -12.425781 4.40625 -12.9375 C 5.394531 -13.457031 6.503906 -13.71875 7.734375 -13.71875 C 9.640625 -13.71875 11.097656 -13.210938 12.109375 -12.203125 C 13.128906 -11.191406 13.640625 -9.710938 13.640625 -7.765625 C 13.640625 -7.054688 13.613281 -6.503906 13.5625 -6.109375 Z M 10.40625 -8.15625 C 10.375 -9.175781 10.132812 -9.921875 9.6875 -10.390625 C 9.238281 -10.859375 8.585938 -11.09375 7.734375 -11.09375 C 6.023438 -11.09375 5.019531 -10.113281 4.71875 -8.15625 Z M 10.40625 -8.15625 "/></g></g></g><g fill="#000000" fill-opacity="1"><g transform="translate(121.501266, 332.499998)"><g><path d="M 1.9375 0 L 1.9375 -13.46875 L 5.21875 -13.46875 L 5.21875 -11.46875 L 5.484375 -11.40625 C 5.804688 -12.15625 6.234375 -12.707031 6.765625 -13.0625 C 7.296875 -13.414062 7.9375 -13.59375 8.6875 -13.59375 C 9.457031 -13.59375 10.039062 -13.460938 10.4375 -13.203125 L 9.859375 -10.28125 L 9.609375 -10.234375 C 9.390625 -10.316406 9.175781 -10.378906 8.96875 -10.421875 C 8.769531 -10.460938 8.523438 -10.484375 8.234375 -10.484375 C 7.285156 -10.484375 6.5625 -10.148438 6.0625 -9.484375 C 5.570312 -8.828125 5.328125 -7.765625 5.328125 -6.296875 L 5.328125 0 Z M 1.9375 0 "/></g></g></g><g fill="#000000" fill-opacity="1"><g transform="translate(132.058703, 332.499998)"><g><path d="M 6.296875 0.25 C 5.378906 0.25 4.535156 0.144531 3.765625 -0.0625 C 3.003906 -0.28125 2.351562 -0.578125 1.8125 -0.953125 C 1.269531 -1.335938 0.867188 -1.773438 0.609375 -2.265625 L 2.484375 -4.28125 L 2.75 -4.28125 C 3.195312 -3.675781 3.722656 -3.222656 4.328125 -2.921875 C 4.941406 -2.628906 5.609375 -2.484375 6.328125 -2.484375 C 6.984375 -2.484375 7.476562 -2.597656 7.8125 -2.828125 C 8.144531 -3.066406 8.3125 -3.40625 8.3125 -3.84375 C 8.3125 -4.1875 8.191406 -4.472656 7.953125 -4.703125 C 7.710938 -4.929688 7.320312 -5.113281 6.78125 -5.25 L 5 -5.671875 C 3.664062 -5.992188 2.691406 -6.484375 2.078125 -7.140625 C 1.460938 -7.796875 1.15625 -8.625 1.15625 -9.625 C 1.15625 -10.46875 1.367188 -11.195312 1.796875 -11.8125 C 2.222656 -12.4375 2.820312 -12.910156 3.59375 -13.234375 C 4.375 -13.554688 5.285156 -13.71875 6.328125 -13.71875 C 7.535156 -13.71875 8.535156 -13.539062 9.328125 -13.1875 C 10.128906 -12.84375 10.753906 -12.378906 11.203125 -11.796875 L 9.40625 -9.84375 L 9.15625 -9.84375 C 8.78125 -10.257812 8.359375 -10.566406 7.890625 -10.765625 C 7.421875 -10.960938 6.898438 -11.0625 6.328125 -11.0625 C 4.992188 -11.0625 4.328125 -10.644531 4.328125 -9.8125 C 4.328125 -9.46875 4.445312 -9.179688 4.6875 -8.953125 C 4.9375 -8.734375 5.375 -8.554688 6 -8.421875 L 7.671875 -8.0625 C 9.035156 -7.769531 10.03125 -7.296875 10.65625 -6.640625 C 11.289062 -5.992188 11.609375 -5.128906 11.609375 -4.046875 C 11.609375 -3.191406 11.394531 -2.4375 10.96875 -1.78125 C 10.550781 -1.132812 9.941406 -0.632812 9.140625 -0.28125 C 8.347656 0.0703125 7.398438 0.25 6.296875 0.25 Z M 6.296875 0.25 "/></g></g></g><g fill="#000000" fill-opacity="1"><g transform="translate(144.471319, 332.499998)"><g><path d="M 3.28125 2.546875 L 0.078125 2.546875 L 6.71875 -18.875 L 9.953125 -18.875 Z M 3.28125 2.546875 "/></g></g></g><g fill="#000000" fill-opacity="1"><g transform="translate(154.955526, 332.499998)"><g><path d="M 13.640625 -17.84375 L 13.640625 -14.890625 L 5.84375 -14.890625 L 5.84375 -10.171875 L 12.921875 -10.171875 L 12.921875 -7.25 L 5.84375 -7.25 L 5.84375 0 L 2.3125 0 L 2.3125 -17.84375 Z M 13.640625 -17.84375 "/></g></g></g><g fill="#000000" fill-opacity="1"><g transform="translate(169.381981, 332.499998)"><g><path d="M 3.625 -15.078125 C 3.007812 -15.078125 2.507812 -15.257812 2.125 -15.625 C 1.75 -16 1.5625 -16.476562 1.5625 -17.0625 C 1.5625 -17.644531 1.75 -18.117188 2.125 -18.484375 C 2.507812 -18.859375 3.007812 -19.046875 3.625 -19.046875 C 4.03125 -19.046875 4.390625 -18.957031 4.703125 -18.78125 C 5.023438 -18.613281 5.273438 -18.378906 5.453125 -18.078125 C 5.628906 -17.785156 5.71875 -17.445312 5.71875 -17.0625 C 5.71875 -16.675781 5.628906 -16.332031 5.453125 -16.03125 C 5.273438 -15.738281 5.023438 -15.503906 4.703125 -15.328125 C 4.390625 -15.160156 4.03125 -15.078125 3.625 -15.078125 Z M 1.9375 0 L 1.9375 -13.46875 L 5.328125 -13.46875 L 5.328125 0 Z M 1.9375 0 "/></g></g></g><g fill="#000000" fill-opacity="1"><g transform="translate(176.631824, 332.499998)"><g><path d="M 5.59375 0.25 C 4.375 0.25 3.445312 -0.0703125 2.8125 -0.71875 C 2.175781 -1.375 1.859375 -2.375 1.859375 -3.71875 L 1.859375 -18.875 L 5.234375 -18.875 L 5.234375 -3.84375 C 5.234375 -3.019531 5.578125 -2.609375 6.265625 -2.609375 C 6.460938 -2.609375 6.671875 -2.640625 6.890625 -2.703125 L 7.0625 -2.65625 L 7.359375 -0.0625 C 7.171875 0.03125 6.921875 0.101562 6.609375 0.15625 C 6.304688 0.21875 5.96875 0.25 5.59375 0.25 Z M 5.59375 0.25 "/></g></g></g><g fill="#000000" fill-opacity="1"><g transform="translate(184.369872, 332.499998)"><g><path d="M 13.3125 -5.96875 L 4.65625 -5.96875 C 4.75 -4.800781 5.078125 -3.945312 5.640625 -3.40625 C 6.210938 -2.875 6.992188 -2.609375 7.984375 -2.609375 C 8.753906 -2.609375 9.378906 -2.753906 9.859375 -3.046875 C 10.335938 -3.335938 10.722656 -3.773438 11.015625 -4.359375 L 11.28125 -4.359375 L 13.53125 -2.921875 C 13.082031 -1.972656 12.414062 -1.207031 11.53125 -0.625 C 10.644531 -0.0390625 9.460938 0.25 7.984375 0.25 C 6.585938 0.25 5.382812 -0.0078125 4.375 -0.53125 C 3.363281 -1.0625 2.582031 -1.847656 2.03125 -2.890625 C 1.476562 -3.941406 1.203125 -5.21875 1.203125 -6.71875 C 1.203125 -8.25 1.488281 -9.539062 2.0625 -10.59375 C 2.644531 -11.644531 3.425781 -12.425781 4.40625 -12.9375 C 5.394531 -13.457031 6.503906 -13.71875 7.734375 -13.71875 C 9.640625 -13.71875 11.097656 -13.210938 12.109375 -12.203125 C 13.128906 -11.191406 13.640625 -9.710938 13.640625 -7.765625 C 13.640625 -7.054688 13.613281 -6.503906 13.5625 -6.109375 Z M 10.40625 -8.15625 C 10.375 -9.175781 10.132812 -9.921875 9.6875 -10.390625 C 9.238281 -10.859375 8.585938 -11.09375 7.734375 -11.09375 C 6.023438 -11.09375 5.019531 -10.113281 4.71875 -8.15625 Z M 10.40625 -8.15625 "/></g></g></g><g fill="#000000" fill-opacity="1"><g transform="translate(199.00382, 332.499998)"><g><path d="M 6.296875 0.25 C 5.378906 0.25 4.535156 0.144531 3.765625 -0.0625 C 3.003906 -0.28125 2.351562 -0.578125 1.8125 -0.953125 C 1.269531 -1.335938 0.867188 -1.773438 0.609375 -2.265625 L 2.484375 -4.28125 L 2.75 -4.28125 C 3.195312 -3.675781 3.722656 -3.222656 4.328125 -2.921875 C 4.941406 -2.628906 5.609375 -2.484375 6.328125 -2.484375 C 6.984375 -2.484375 7.476562 -2.597656 7.8125 -2.828125 C 8.144531 -3.066406 8.3125 -3.40625 8.3125 -3.84375 C 8.3125 -4.1875 8.191406 -4.472656 7.953125 -4.703125 C 7.710938 -4.929688 7.320312 -5.113281 6.78125 -5.25 L 5 -5.671875 C 3.664062 -5.992188 2.691406 -6.484375 2.078125 -7.140625 C 1.460938 -7.796875 1.15625 -8.625 1.15625 -9.625 C 1.15625 -10.46875 1.367188 -11.195312 1.796875 -11.8125 C 2.222656 -12.4375 2.820312 -12.910156 3.59375 -13.234375 C 4.375 -13.554688 5.285156 -13.71875 6.328125 -13.71875 C 7.535156 -13.71875 8.535156 -13.539062 9.328125 -13.1875 C 10.128906 -12.84375 10.753906 -12.378906 11.203125 -11.796875 L 9.40625 -9.84375 L 9.15625 -9.84375 C 8.78125 -10.257812 8.359375 -10.566406 7.890625 -10.765625 C 7.421875 -10.960938 6.898438 -11.0625 6.328125 -11.0625 C 4.992188 -11.0625 4.328125 -10.644531 4.328125 -9.8125 C 4.328125 -9.46875 4.445312 -9.179688 4.6875 -8.953125 C 4.9375 -8.734375 5.375 -8.554688 6 -8.421875 L 7.671875 -8.0625 C 9.035156 -7.769531 10.03125 -7.296875 10.65625 -6.640625 C 11.289062 -5.992188 11.609375 -5.128906 11.609375 -4.046875 C 11.609375 -3.191406 11.394531 -2.4375 10.96875 -1.78125 C 10.550781 -1.132812 9.941406 -0.632812 9.140625 -0.28125 C 8.347656 0.0703125 7.398438 0.25 6.296875 0.25 Z M 6.296875 0.25 "/></g></g></g><g fill="#000000" fill-opacity="1"><g transform="translate(211.416436, 332.499998)"><g/></g></g><g fill="#000000" fill-opacity="1"><g transform="translate(217.311516, 332.499998)"><g><path d="M 7.234375 0 L 3.6875 0 L 0.484375 -13.46875 L 3.625 -13.46875 L 5.609375 -4.359375 L 5.859375 -4.359375 L 8.421875 -13.46875 L 11.359375 -13.46875 L 14 -4.359375 L 14.265625 -4.359375 L 16.15625 -13.46875 L 19.21875 -13.46875 L 16.046875 0 L 12.5 0 L 9.953125 -9.171875 L 9.6875 -9.171875 Z M 7.234375 0 "/></g></g></g><g fill="#000000" fill-opacity="1"><g transform="translate(236.900756, 332.499998)"><g><path d="M 13.3125 -5.96875 L 4.65625 -5.96875 C 4.75 -4.800781 5.078125 -3.945312 5.640625 -3.40625 C 6.210938 -2.875 6.992188 -2.609375 7.984375 -2.609375 C 8.753906 -2.609375 9.378906 -2.753906 9.859375 -3.046875 C 10.335938 -3.335938 10.722656 -3.773438 11.015625 -4.359375 L 11.28125 -4.359375 L 13.53125 -2.921875 C 13.082031 -1.972656 12.414062 -1.207031 11.53125 -0.625 C 10.644531 -0.0390625 9.460938 0.25 7.984375 0.25 C 6.585938 0.25 5.382812 -0.0078125 4.375 -0.53125 C 3.363281 -1.0625 2.582031 -1.847656 2.03125 -2.890625 C 1.476562 -3.941406 1.203125 -5.21875 1.203125 -6.71875 C 1.203125 -8.25 1.488281 -9.539062 2.0625 -10.59375 C 2.644531 -11.644531 3.425781 -12.425781 4.40625 -12.9375 C 5.394531 -13.457031 6.503906 -13.71875 7.734375 -13.71875 C 9.640625 -13.71875 11.097656 -13.210938 12.109375 -12.203125 C 13.128906 -11.191406 13.640625 -9.710938 13.640625 -7.765625 C 13.640625 -7.054688 13.613281 -6.503906 13.5625 -6.109375 Z M 10.40625 -8.15625 C 10.375 -9.175781 10.132812 -9.921875 9.6875 -10.390625 C 9.238281 -10.859375 8.585938 -11.09375 7.734375 -11.09375 C 6.023438 -11.09375 5.019531 -10.113281 4.71875 -8.15625 Z M 10.40625 -8.15625 "/></g></g></g><g fill="#000000" fill-opacity="1"><g transform="translate(251.534704, 332.499998)"><g><path d="M 1.9375 0 L 1.9375 -13.46875 L 5.21875 -13.46875 L 5.21875 -11.46875 L 5.484375 -11.40625 C 5.804688 -12.15625 6.234375 -12.707031 6.765625 -13.0625 C 7.296875 -13.414062 7.9375 -13.59375 8.6875 -13.59375 C 9.457031 -13.59375 10.039062 -13.460938 10.4375 -13.203125 L 9.859375 -10.28125 L 9.609375 -10.234375 C 9.390625 -10.316406 9.175781 -10.378906 8.96875 -10.421875 C 8.769531 -10.460938 8.523438 -10.484375 8.234375 -10.484375 C 7.285156 -10.484375 6.5625 -10.148438 6.0625 -9.484375 C 5.570312 -8.828125 5.328125 -7.765625 5.328125 -6.296875 L 5.328125 0 Z M 1.9375 0 "/></g></g></g><g fill="#000000" fill-opacity="1"><g transform="translate(261.738187, 332.499998)"><g><path d="M 13.3125 -5.96875 L 4.65625 -5.96875 C 4.75 -4.800781 5.078125 -3.945312 5.640625 -3.40625 C 6.210938 -2.875 6.992188 -2.609375 7.984375 -2.609375 C 8.753906 -2.609375 9.378906 -2.753906 9.859375 -3.046875 C 10.335938 -3.335938 10.722656 -3.773438 11.015625 -4.359375 L 11.28125 -4.359375 L 13.53125 -2.921875 C 13.082031 -1.972656 12.414062 -1.207031 11.53125 -0.625 C 10.644531 -0.0390625 9.460938 0.25 7.984375 0.25 C 6.585938 0.25 5.382812 -0.0078125 4.375 -0.53125 C 3.363281 -1.0625 2.582031 -1.847656 2.03125 -2.890625 C 1.476562 -3.941406 1.203125 -5.21875 1.203125 -6.71875 C 1.203125 -8.25 1.488281 -9.539062 2.0625 -10.59375 C 2.644531 -11.644531 3.425781 -12.425781 4.40625 -12.9375 C 5.394531 -13.457031 6.503906 -13.71875 7.734375 -13.71875 C 9.640625 -13.71875 11.097656 -13.210938 12.109375 -12.203125 C 13.128906 -11.191406 13.640625 -9.710938 13.640625 -7.765625 C 13.640625 -7.054688 13.613281 -6.503906 13.5625 -6.109375 Z M 10.40625 -8.15625 C 10.375 -9.175781 10.132812 -9.921875 9.6875 -10.390625 C 9.238281 -10.859375 8.585938 -11.09375 7.734375 -11.09375 C 6.023438 -11.09375 5.019531 -10.113281 4.71875 -8.15625 Z M 10.40625 -8.15625 "/></g></g></g><g fill="#000000" fill-opacity="1"><g transform="translate(276.372135, 332.499998)"><g/></g></g><g fill="#000000" fill-opacity="1"><g transform="translate(282.267215, 332.499998)"><g><path d="M 2.359375 0 L 2.359375 -10.796875 L 0.453125 -10.796875 L 0.453125 -13.484375 L 2.359375 -13.484375 C 2.222656 -14.046875 2.15625 -14.578125 2.15625 -15.078125 C 2.15625 -15.929688 2.347656 -16.660156 2.734375 -17.265625 C 3.128906 -17.867188 3.691406 -18.328125 4.421875 -18.640625 C 5.148438 -18.960938 6.019531 -19.125 7.03125 -19.125 C 8.519531 -19.125 9.628906 -18.867188 10.359375 -18.359375 L 9.578125 -15.875 L 9.3125 -15.828125 C 8.8125 -16.179688 8.164062 -16.359375 7.375 -16.359375 C 6.757812 -16.359375 6.300781 -16.207031 6 -15.90625 C 5.695312 -15.613281 5.546875 -15.210938 5.546875 -14.703125 C 5.546875 -14.484375 5.554688 -14.28125 5.578125 -14.09375 C 5.609375 -13.90625 5.660156 -13.703125 5.734375 -13.484375 L 9.578125 -13.484375 L 9.578125 -10.796875 L 5.734375 -10.796875 L 5.734375 0 Z M 2.359375 0 "/></g></g></g><g fill="#000000" fill-opacity="1"><g transform="translate(291.86043, 332.499998)"><g><path d="M 7.828125 0.25 C 6.503906 0.25 5.34375 -0.0195312 4.34375 -0.5625 C 3.351562 -1.101562 2.582031 -1.894531 2.03125 -2.9375 C 1.476562 -3.976562 1.203125 -5.238281 1.203125 -6.71875 C 1.203125 -8.207031 1.476562 -9.472656 2.03125 -10.515625 C 2.582031 -11.566406 3.351562 -12.363281 4.34375 -12.90625 C 5.34375 -13.445312 6.503906 -13.71875 7.828125 -13.71875 C 9.140625 -13.71875 10.296875 -13.445312 11.296875 -12.90625 C 12.296875 -12.363281 13.070312 -11.566406 13.625 -10.515625 C 14.175781 -9.472656 14.453125 -8.207031 14.453125 -6.71875 C 14.453125 -5.238281 14.175781 -3.976562 13.625 -2.9375 C 13.070312 -1.894531 12.296875 -1.101562 11.296875 -0.5625 C 10.296875 -0.0195312 9.140625 0.25 7.828125 0.25 Z M 7.828125 -2.609375 C 9.921875 -2.609375 10.96875 -3.976562 10.96875 -6.71875 C 10.96875 -8.144531 10.695312 -9.191406 10.15625 -9.859375 C 9.613281 -10.523438 8.835938 -10.859375 7.828125 -10.859375 C 5.734375 -10.859375 4.6875 -9.476562 4.6875 -6.71875 C 4.6875 -3.976562 5.734375 -2.609375 7.828125 -2.609375 Z M 7.828125 -2.609375 "/></g></g></g><g fill="#000000" fill-opacity="1"><g transform="translate(307.507409, 332.499998)"><g><path d="M 6.171875 0.25 C 4.648438 0.25 3.53125 -0.160156 2.8125 -0.984375 C 2.09375 -1.804688 1.734375 -2.992188 1.734375 -4.546875 L 1.734375 -13.46875 L 5.109375 -13.46875 L 5.109375 -4.96875 C 5.109375 -4.144531 5.285156 -3.539062 5.640625 -3.15625 C 5.992188 -2.78125 6.539062 -2.59375 7.28125 -2.59375 C 8.21875 -2.59375 8.945312 -2.898438 9.46875 -3.515625 C 9.988281 -4.128906 10.25 -5.097656 10.25 -6.421875 L 10.25 -13.46875 L 13.640625 -13.46875 L 13.640625 0 L 10.390625 0 L 10.390625 -1.984375 L 10.125 -2.03125 C 9.695312 -1.257812 9.171875 -0.6875 8.546875 -0.3125 C 7.929688 0.0625 7.140625 0.25 6.171875 0.25 Z M 6.171875 0.25 "/></g></g></g><g fill="#000000" fill-opacity="1"><g transform="translate(323.081146, 332.499998)"><g><path d="M 1.9375 0 L 1.9375 -13.46875 L 5.1875 -13.46875 L 5.1875 -11.484375 L 5.4375 -11.421875 C 6.28125 -12.953125 7.640625 -13.71875 9.515625 -13.71875 C 11.078125 -13.71875 12.21875 -13.296875 12.9375 -12.453125 C 13.664062 -11.609375 14.03125 -10.375 14.03125 -8.75 L 14.03125 0 L 10.65625 0 L 10.65625 -8.34375 C 10.65625 -9.238281 10.472656 -9.878906 10.109375 -10.265625 C 9.753906 -10.660156 9.1875 -10.859375 8.40625 -10.859375 C 7.4375 -10.859375 6.679688 -10.546875 6.140625 -9.921875 C 5.597656 -9.296875 5.328125 -8.3125 5.328125 -6.96875 L 5.328125 0 Z M 1.9375 0 "/></g></g></g><g fill="#000000" fill-opacity="1"><g transform="translate(338.850165, 332.499998)"><g><path d="M 6.65625 0.25 C 5.582031 0.25 4.632812 -0.00390625 3.8125 -0.515625 C 3 -1.035156 2.359375 -1.816406 1.890625 -2.859375 C 1.429688 -3.910156 1.203125 -5.195312 1.203125 -6.71875 C 1.203125 -8.257812 1.441406 -9.550781 1.921875 -10.59375 C 2.398438 -11.644531 3.054688 -12.425781 3.890625 -12.9375 C 4.734375 -13.457031 5.710938 -13.71875 6.828125 -13.71875 C 7.660156 -13.71875 8.382812 -13.570312 9 -13.28125 C 9.613281 -13 10.132812 -12.550781 10.5625 -11.9375 L 10.8125 -12 L 10.8125 -18.875 L 14.203125 -18.875 L 14.203125 0 L 10.8125 0 L 10.8125 -1.75 L 10.5625 -1.796875 C 10.1875 -1.160156 9.671875 -0.660156 9.015625 -0.296875 C 8.367188 0.0664062 7.582031 0.25 6.65625 0.25 Z M 7.75 -2.609375 C 8.707031 -2.609375 9.460938 -2.945312 10.015625 -3.625 C 10.566406 -4.3125 10.84375 -5.34375 10.84375 -6.71875 C 10.84375 -8.101562 10.566406 -9.140625 10.015625 -9.828125 C 9.460938 -10.515625 8.707031 -10.859375 7.75 -10.859375 C 6.757812 -10.859375 6 -10.523438 5.46875 -9.859375 C 4.945312 -9.191406 4.6875 -8.144531 4.6875 -6.71875 C 4.6875 -5.3125 4.945312 -4.273438 5.46875 -3.609375 C 6 -2.941406 6.757812 -2.609375 7.75 -2.609375 Z M 7.75 -2.609375 "/></g></g></g><g fill="#000000" fill-opacity="1"><g transform="translate(354.985327, 332.499998)"><g><path d="M 5.4375 -5.921875 L 2.390625 -5.921875 L 2.15625 -17.84375 L 5.6875 -17.84375 Z M 3.921875 0.125 C 3.492188 0.125 3.117188 0.0390625 2.796875 -0.125 C 2.472656 -0.300781 2.222656 -0.539062 2.046875 -0.84375 C 1.878906 -1.144531 1.796875 -1.484375 1.796875 -1.859375 C 1.796875 -2.234375 1.878906 -2.570312 2.046875 -2.875 C 2.222656 -3.1875 2.472656 -3.425781 2.796875 -3.59375 C 3.117188 -3.769531 3.492188 -3.859375 3.921875 -3.859375 C 4.554688 -3.859375 5.066406 -3.671875 5.453125 -3.296875 C 5.835938 -2.921875 6.03125 -2.445312 6.03125 -1.875 C 6.03125 -1.289062 5.835938 -0.8125 5.453125 -0.4375 C 5.066406 -0.0625 4.554688 0.125 3.921875 0.125 Z M 3.921875 0.125 "/></g></g></g></svg>